<?xml version="1.0" standalone="no"?>
<!DOCTYPE svg PUBLIC "-//W3C//DTD SVG 20010904//EN"
 "http://www.w3.org/TR/2001/REC-SVG-20010904/DTD/svg10.dtd">
<svg version="1.0" xmlns="http://www.w3.org/2000/svg"
 width="592.000000pt" height="592.000000pt" viewBox="0 0 592.000000 592.000000"
 preserveAspectRatio="xMidYMid meet">
<metadata>
Created by potrace 1.14, written by Peter Selinger 2001-2017
</metadata>
<g transform="translate(0.000000,592.000000) scale(0.100000,-0.100000)"
fill="#000000" stroke="none">
<path d="M2650 5744 c-168 -98 -357 -206 -420 -242 -63 -36 -118 -70 -121 -75
-3 -4 -6 -221 -7 -480 0 -260 -1 -478 -1 -485 -1 -14 -28 0 -196 98 -49 29
-110 64 -135 78 -25 13 -70 39 -100 57 -30 18 -71 42 -90 53 -19 10 -98 56
-174 101 -76 44 -143 81 -149 81 -9 0 -193 -105 -642 -366 l-210 -121 0 -498
0 -498 80 -47 c44 -26 231 -134 415 -240 184 -106 336 -194 338 -195 3 -2 -35
-26 -103 -65 -16 -9 -75 -43 -130 -75 -134 -78 -201 -117 -234 -135 -15 -8
-105 -60 -199 -115 l-172 -99 0 -496 0 -496 173 -99 c94 -55 286 -166 426
-247 l254 -147 51 28 c28 15 94 52 146 83 52 30 169 98 260 151 203 117 210
121 309 178 l81 47 1 -27 c0 -14 1 -235 2 -490 l2 -463 225 -130 c124 -72 314
-182 423 -245 215 -124 208 -122 281 -75 22 13 61 36 86 51 39 22 103 58 373
214 18 10 97 56 177 103 l145 84 0 485 c0 300 3 485 9 485 9 0 580 -327 765
-437 l73 -44 187 107 c102 60 281 162 396 229 116 66 225 129 243 140 l32 19
0 496 0 497 -172 99 c-95 54 -182 104 -193 110 -58 31 -461 267 -468 274 -5 4
42 36 104 71 143 82 117 67 447 258 l282 163 0 497 0 498 -27 14 c-15 8 -146
82 -290 166 -144 83 -281 163 -305 176 -24 13 -83 47 -131 76 -49 28 -95 51
-103 51 -12 0 -74 -33 -134 -70 -8 -6 -55 -33 -105 -61 -49 -28 -103 -59 -120
-69 -16 -10 -122 -70 -235 -135 -113 -65 -214 -124 -225 -131 -11 -8 -22 -14
-25 -14 -3 0 -5 217 -5 483 0 471 0 482 -20 501 -16 14 -413 248 -476 280 -8
4 -23 12 -34 19 -18 11 -140 82 -273 159 -26 15 -49 27 -52 27 -3 1 -142 -78
-310 -175z m-361 -1416 c34 -21 65 -38 66 -38 2 0 54 -29 115 -65 61 -36 130
-76 153 -89 130 -73 313 -180 321 -187 10 -9 51 12 235 120 120 71 499 289
561 323 19 11 39 24 44 29 6 5 13 9 17 9 3 0 6 -219 7 -486 0 -267 4 -489 8
-494 15 -14 446 -260 455 -260 5 0 9 -4 9 -9 0 -5 6 -11 13 -13 7 -2 79 -41
160 -88 81 -47 156 -90 167 -96 11 -6 23 -13 26 -16 5 -5 -70 -50 -396 -238
-241 -139 -435 -252 -439 -256 -2 -2 -4 -222 -3 -489 0 -267 -2 -485 -4 -485
-3 0 -64 34 -137 76 -73 42 -152 88 -177 102 -25 14 -140 81 -257 149 -300
174 -269 163 -339 121 -71 -43 -256 -150 -426 -246 -18 -11 -104 -60 -190
-111 -86 -50 -159 -91 -161 -91 -3 0 -5 210 -5 468 0 257 -1 477 -1 489 -1 13
-12 27 -28 36 -16 7 -122 69 -237 135 -115 67 -211 122 -213 122 -2 0 -22 11
-44 26 -22 14 -57 34 -77 46 -20 11 -84 47 -141 81 -88 51 -100 62 -85 70 11
6 116 67 234 135 118 69 240 139 270 155 30 16 62 34 70 41 14 10 35 22 103
60 77 42 138 79 143 88 4 6 7 228 7 494 l0 484 56 -32 c31 -17 85 -49 120 -70z"/>
</g>
</svg>
