<?xml version="1.0" encoding="UTF-8"?>
<svg width="141px" height="52px" viewBox="0 0 141 52" version="1.1" xmlns="http://www.w3.org/2000/svg" xmlns:xlink="http://www.w3.org/1999/xlink">
    <title>1DA03363-9F10-4A82-898D-C653CEA15A90</title>
    <defs>
        <polygon id="path-1" points="0 0 44.7290881 0 44.7290881 52 0 52"></polygon>
    </defs>
    <g id="Screendesign" stroke="none" stroke-width="1" fill="none" fill-rule="evenodd">
        <g id="00---StickyMenu---Desktop" transform="translate(-340.000000, -24.000000)">
            <g id="sfn-logo-short" transform="translate(340.000000, 24.000000)">
                <g id="Group-3">
                    <mask id="mask-2" fill="white">
                        <use xlink:href="#path-1"></use>
                    </mask>
                    <g id="Clip-2"></g>
                    <path d="M29.775982,30.3236049 L29.775982,38.9640413 L22.3417835,34.6438231 L14.9297517,38.9512915 L14.9297517,30.3208159 L7.53117841,26.0213162 L14.9297517,21.7214181 L14.9297517,13.0726146 L22.3417835,17.3800829 L29.775982,13.0598647 L29.775982,21.6959184 L37.1990972,26.0097616 L29.775982,30.3236049 Z M44.7290881,13.0060761 L37.252535,8.66075656 L29.8183365,12.9813732 L29.8183365,4.34492112 L22.3417835,0 L14.8652304,4.34492112 L14.8652304,12.9941231 L7.45280286,8.68665476 L-0.0237501684,13.0315759 L-0.0237501684,21.7214181 L7.37482314,26.0213162 L-0.0237501684,30.3208159 L-0.0237501684,39.0106581 L7.45280286,43.3555792 L14.8652304,39.0481109 L14.8652304,47.6789849 L22.3417835,52.023906 L29.8183365,47.6789849 L29.8183365,39.0385485 L37.252535,43.3587667 L44.7290881,39.0134471 L44.7290881,30.3236049 L37.3059729,26.0097616 L44.7290881,21.6959184 L44.7290881,13.0060761 L44.7290881,13.0060761 Z" id="Fill-1" fill="#E56843" mask="url(#mask-2)"></path>
                </g>
                <path d="M61.9123349,24.0311391 C61.4650401,24.0311391 60.9738074,24.0191861 60.4374495,23.996077 C59.9014873,23.9717725 59.3809628,23.9394994 58.8746884,23.8980622 C58.368414,23.8570235 57.9033065,23.8116021 57.4789702,23.7645869 L57.4789702,21.755285 C57.9143899,21.7915425 58.3593097,21.8270031 58.8125421,21.8620653 C59.2657745,21.8975259 59.6984234,21.9246194 60.1112805,21.9425489 C60.5225542,21.9596816 60.8756401,21.9688455 61.1709338,21.9688455 C61.7710214,21.9688455 62.2361289,21.9425489 62.5654646,21.8891588 C62.8955919,21.8357686 63.1425937,21.755285 63.3076573,21.6485047 C63.4370957,21.5540759 63.525763,21.4500847 63.5728675,21.3377263 C63.619972,21.225368 63.6488681,21.0887052 63.661139,20.9285348 C63.6730141,20.7687628 63.6789516,20.5882723 63.6789516,20.3866647 C63.6789516,20.114136 63.6639099,19.8890208 63.6350138,19.7109209 C63.6049303,19.532821 63.5550549,19.3937676 63.4845961,19.2933622 C63.4137414,19.1925585 63.2989489,19.1188482 63.1398228,19.0706377 C62.9806967,19.024021 62.7776327,18.9881619 62.530631,18.9638575 L59.810445,18.626384 C59.2689412,18.5550643 58.8240214,18.4311514 58.4764772,18.2530515 C58.1293289,18.0757484 57.856202,17.8382818 57.6559089,17.541847 C57.45522,17.2458107 57.3170732,16.8963842 57.2410726,16.4935676 C57.1638846,16.090751 57.1258843,15.6337473 57.1258843,15.1241505 C57.1258843,14.3185172 57.2379059,13.6778356 57.4611575,13.2036993 C57.6852008,12.7303599 58.0002863,12.368582 58.4064142,12.1199592 C58.8125421,11.8705396 59.2918997,11.7079786 59.8460703,11.6306825 C60.3994492,11.5541832 60.9999326,11.5147382 61.6471247,11.5147382 C62.1181697,11.5147382 62.6014856,11.5298787 63.095885,11.5593628 C63.5898885,11.5892454 64.0553918,11.627495 64.4912074,11.6749086 C64.9266271,11.7223223 65.2915881,11.7816889 65.5860901,11.8530086 L65.5860901,13.8089203 C65.2915881,13.7615067 64.9503773,13.7192727 64.5616662,13.6842105 C64.173351,13.6487499 63.7668272,13.6216564 63.3428867,13.6045238 C62.9193421,13.5861958 62.5183601,13.5774303 62.1423157,13.5774303 C61.5881451,13.5774303 61.1499545,13.5985472 60.8265564,13.6395859 C60.5023666,13.6810231 60.2521982,13.7495537 60.0752594,13.8439825 C59.8753621,13.9627158 59.7542363,14.1169097 59.7130693,14.3061658 C59.6722982,14.4958203 59.6521106,14.7332868 59.6521106,15.0173702 C59.6521106,15.3727732 59.6750691,15.6425129 59.7221736,15.8261909 C59.7692781,16.0102673 59.8812997,16.1373677 60.0582384,16.2086874 C60.2343855,16.280007 60.5106792,16.3393737 60.887911,16.3867873 L63.608097,16.7063313 C63.9374326,16.7421903 64.2442056,16.801557 64.5264368,16.8844312 C64.8094596,16.966907 65.0623989,17.0975933 65.2856505,17.2752948 C65.5096938,17.4533947 65.6921742,17.7020175 65.8338836,18.0223583 C65.9158217,18.1885052 65.9811346,18.3809487 66.0278433,18.6000873 C66.0749478,18.8196244 66.1129481,19.0654581 66.1430316,19.3375884 C66.1719276,19.6105156 66.1869694,19.9125284 66.1869694,20.2448223 C66.1869694,20.9317222 66.1192814,21.5066623 65.9839055,21.9688455 C65.8481337,22.4310288 65.6569448,22.7987832 65.4095472,23.071312 C65.1625455,23.3442392 64.859335,23.5510264 64.5003116,23.6936657 C64.1404966,23.8359066 63.7430771,23.9275463 63.3076573,23.9689835 C62.8718417,24.0100221 62.4071301,24.0311391 61.9123349,24.0311391" id="Fill-4" fill="#000105"></path>
                <polyline id="Fill-5" fill="#000105" points="68.4048393 23.8892967 68.4048393 11.657776 76.353229 11.657776 76.353229 13.7192727 70.9128571 13.7192727 70.9128571 17.0262736 75.7000994 17.0262736 75.7000994 19.0889657 70.9128571 19.0889657 70.9128571 23.8892967 68.4048393 23.8892967"></polyline>
                <polyline id="Fill-6" fill="#000105" points="78.4155353 23.8892967 78.4155353 11.657776 81.0126162 11.657776 85.7990668 19.1953475 85.8869425 19.1953475 85.8869425 11.657776 88.289272 11.657776 88.289272 23.8892967 85.9051509 23.8892967 80.9065321 15.9417367 80.8178648 15.9417367 80.8178648 23.8892967 78.4155353 23.8892967"></polyline>
                <path d="M58.5010191,38.1998452 L59.9026748,38.1998452 C60.4022201,38.1998452 60.8138896,38.1878922 61.1384753,38.1635877 C61.4634567,38.1396817 61.7211461,38.0779245 61.9111474,37.9779176 C62.1011488,37.8783091 62.2396914,37.7149512 62.3271712,37.4874455 C62.4138593,37.2603382 62.4716514,36.9431849 62.4993599,36.5371808 C62.5270685,36.1299814 62.5409227,35.6084315 62.5409227,34.9701404 C62.5409227,34.3322479 62.5270685,33.8118933 62.4993599,33.4090766 C62.4716514,33.00626 62.412276,32.6899035 62.3208378,32.4584135 C62.2297955,32.2277203 62.0896695,32.0623702 61.8992723,31.9615665 C61.709271,31.8623564 61.4535608,31.8005992 61.1325377,31.7766932 C60.8119105,31.7527871 60.4022201,31.7404357 59.9026748,31.7404357 L58.5010191,31.7404357 L58.5010191,38.1998452 Z M57.4789702,39.0843684 L57.4789702,30.8551157 L60.0693219,30.8551157 C60.7426391,30.8551157 61.2932472,30.8873888 61.7211461,30.9515367 C62.1490449,31.0152861 62.4874848,31.1304335 62.7368616,31.2985725 C62.9862384,31.4655163 63.170698,31.7045766 63.2894489,32.0157535 C63.4081997,32.3269303 63.4838044,32.7213798 63.5154713,33.2002973 C63.5467424,33.6784179 63.5629716,34.2688969 63.5629716,34.9701404 C63.5629716,35.671384 63.5467424,36.2622614 63.5154713,36.740382 C63.4838044,37.2181042 63.4081997,37.613749 63.2894489,37.9249259 C63.170698,38.2353058 62.9862384,38.4747646 62.7368616,38.6417084 C62.4874848,38.809449 62.1490449,38.9249948 61.7211461,38.9891427 C61.2932472,39.0520952 60.7426391,39.0843684 60.0693219,39.0843684 L57.4789702,39.0843684 L57.4789702,39.0843684 Z" id="Fill-7" fill="#000105"></path>
                <polyline id="Fill-8" fill="#000105" points="65.5496732 39.0843684 65.5496732 30.8551157 70.8610026 30.8551157 70.8610026 31.7404357 66.5717221 31.7404357 66.5717221 34.4792699 70.3024778 34.4792699 70.3024778 35.3769414 66.5717221 35.3769414 66.5717221 38.1998452 70.8610026 38.1998452 70.8610026 39.0843684 65.5496732 39.0843684"></polyline>
                <path d="M75.7626415,39.1799925 C75.2001583,39.1799925 74.7306967,39.1461256 74.3542565,39.0783919 C73.9782122,39.0106581 73.6750017,38.8975029 73.4454167,38.7381294 C73.2158318,38.5787558 73.041268,38.3568282 72.9225172,38.0735417 C72.8037663,37.7910521 72.7242033,37.4376413 72.6846197,37.0153014 C72.645036,36.5929615 72.6252442,36.0817709 72.6252442,35.4841201 L72.6252442,30.8551157 L73.6472932,30.8551157 L73.6472932,35.8909211 C73.6472932,36.3929477 73.667085,36.8005455 73.7066686,37.1113239 C73.7462522,37.4221024 73.8317528,37.6655454 73.9623787,37.8404579 C74.0930046,38.0165657 74.3008186,38.1352989 74.5862165,38.1998452 C74.8716143,38.2627978 75.2634921,38.2946725 75.7626415,38.2946725 C76.261395,38.2946725 76.6516895,38.2627978 76.9327331,38.1998452 C77.2137768,38.1352989 77.4200074,38.0165657 77.5506333,37.8404579 C77.6816551,37.6655454 77.7628015,37.4221024 77.7944684,37.1113239 C77.8257395,36.8005455 77.8419687,36.3929477 77.8419687,35.8909211 L77.8419687,30.8551157 L78.8636218,30.8551157 L78.8636218,35.4841201 C78.8636218,36.0817709 78.846205,36.5929615 78.8101839,37.0153014 C78.7749545,37.4376413 78.6993498,37.7910521 78.5845573,38.0735417 C78.4697649,38.3568282 78.2971803,38.5787558 78.0675953,38.7381294 C77.8376145,38.8975029 77.5347999,39.0106581 77.1587556,39.0783919 C76.7823154,39.1461256 76.3168121,39.1799925 75.7626415,39.1799925" id="Fill-9" fill="#000105"></path>
                <polyline id="Fill-10" fill="#000105" points="83.0594849 39.0843684 83.0594849 31.7647401 80.4810083 31.7647401 80.4810083 30.8551157 86.6718855 30.8551157 86.6718855 31.7647401 84.081138 31.7647401 84.081138 39.0843684 83.0594849 39.0843684"></polyline>
                <path d="M91.1654174,39.1799925 C90.8728945,39.1799925 90.5518714,39.1724222 90.2031397,39.155688 C89.8544081,39.1401491 89.5155724,39.119829 89.1870284,39.0963214 C88.8580885,39.0724154 88.5592322,39.044525 88.2900637,39.0130487 L88.2900637,38.1396817 C88.5750657,38.1635877 88.873922,38.1878922 89.1870284,38.2117982 C89.5001348,38.2353058 89.8049286,38.255626 90.1022015,38.2711649 C90.3994745,38.2871022 90.6504346,38.2946725 90.8562694,38.2946725 C91.2758557,38.2946725 91.6135039,38.2771414 91.8660474,38.2412823 C92.1197783,38.2058217 92.3335298,38.1352989 92.5080936,38.0313077 C92.6276361,37.959988 92.7143242,37.8647624 92.7693454,37.7444353 C92.8247625,37.625702 92.8592002,37.4858518 92.8710753,37.3264782 C92.8829504,37.1671047 92.888888,36.9957781 92.888888,36.8124986 C92.888888,36.5411651 92.8797837,36.3216281 92.8651378,36.1538874 C92.8485127,35.9869436 92.806554,35.8570542 92.7396577,35.7654144 C92.6723656,35.6737746 92.5635106,35.6060409 92.4123012,35.5618147 C92.263071,35.517987 92.0600071,35.4841201 91.8074636,35.4602141 L89.7752409,35.2331068 C89.3952382,35.1852947 89.0900485,35.1032174 88.8604635,34.9876715 C88.6304828,34.8725242 88.4578982,34.7243068 88.3435015,34.54541 C88.2283132,34.3661147 88.1511252,34.1501636 88.1119374,33.8991503 C88.071958,33.6481369 88.0521662,33.3672411 88.0521662,33.0560642 C88.0521662,32.5536392 88.1174791,32.1508225 88.2485009,31.8488097 C88.3791268,31.5452031 88.5711073,31.313713 88.8244425,31.1543395 C89.0781734,30.9949659 89.3849464,30.8897794 89.7455532,30.8371861 C90.105764,30.7861866 90.5202045,30.7606868 90.987687,30.7606868 C91.2881266,30.7606868 91.5972746,30.7678586 91.9135477,30.783796 C92.2302166,30.7997334 92.5306562,30.8220457 92.8113041,30.8491392 C93.0919519,30.8778264 93.323516,30.9116933 93.5056007,30.9515367 L93.5056007,31.8005992 C93.29937,31.7691229 93.0622642,31.7404357 92.7934914,31.7165296 C92.5243229,31.6926236 92.2480292,31.6742957 91.9673814,31.6623426 C91.6867336,31.6511865 91.4195442,31.64521 91.1654174,31.64521 C90.7296018,31.64521 90.3769118,31.6655301 90.1081391,31.7045766 C89.8385747,31.7452169 89.6248231,31.8165365 89.4664887,31.9201293 C89.2919249,32.0241206 89.18307,32.1691505 89.139528,32.3568128 C89.0959861,32.5440767 89.0742151,32.7687934 89.0742151,33.0325566 C89.0742151,33.3429366 89.0959861,33.5851844 89.139528,33.7565109 C89.18307,33.9278375 89.2780707,34.0473677 89.42453,34.1151014 C89.5713853,34.1824367 89.7914702,34.2330378 90.0843889,34.2645141 L92.0691113,34.4916214 C92.3541133,34.5155274 92.6050734,34.5529802 92.8231792,34.6055735 C93.0412849,34.6569714 93.229307,34.7426347 93.3876415,34.8625633 C93.5459759,34.9812966 93.6655185,35.15342 93.7446857,35.3769414 C93.7909985,35.4881045 93.8266238,35.6120174 93.8507698,35.7474849 C93.8745199,35.8833508 93.8923326,36.0323651 93.9042077,36.1961214 C93.9164786,36.3598777 93.9224161,36.5411651 93.9224161,36.740382 C93.9224161,37.1941982 93.8788741,37.571515 93.7909985,37.8707389 C93.7043104,38.1699627 93.581997,38.4074293 93.4236626,38.5815449 C93.2653281,38.7576526 93.0709726,38.8891358 92.8409918,38.9767912 C92.611011,39.0640482 92.3556967,39.119829 92.0750488,39.143735 C91.7928177,39.1680395 91.4896072,39.1799925 91.1654174,39.1799925" id="Fill-11" fill="#000105"></path>
                <path d="M98.9364725,39.1799925 C98.3664685,39.1799925 97.8871109,39.1461256 97.4987956,39.0783919 C97.1108762,39.0106581 96.7942073,38.891128 96.5483931,38.7198014 C96.3025788,38.5484748 96.1145567,38.3050318 95.9839307,37.990269 C95.8533048,37.6751078 95.7642417,37.2706975 95.7167413,36.7762411 C95.6688452,36.2817847 95.645095,35.6797511 95.645095,34.9701404 C95.645095,34.2601313 95.6688452,33.66009 95.7167413,33.1700163 C95.7642417,32.6799427 95.8533048,32.2771261 95.9839307,31.9615665 C96.1145567,31.6476006 96.3025788,31.4025638 96.5483931,31.226456 C96.7942073,31.0507467 97.1108762,30.9296228 97.4987956,30.8610922 C97.8871109,30.7937568 98.3664685,30.7606868 98.9364725,30.7606868 C99.1581407,30.7606868 99.3857465,30.7678586 99.6196857,30.783796 C99.853229,30.7997334 100.077272,30.8200535 100.29142,30.8431626 C100.505171,30.8670687 100.691214,30.8997403 100.85034,30.9395836 L100.85034,31.7647401 C100.667068,31.7404357 100.479046,31.7189202 100.285482,31.6986001 C100.091522,31.6790769 99.8987502,31.6655301 99.7091447,31.657163 C99.5187475,31.6487959 99.3485379,31.64521 99.198516,31.64521 C98.7385544,31.64521 98.3545934,31.6655301 98.0454454,31.7045766 C97.7362973,31.7452169 97.4908789,31.822513 97.3083985,31.9376604 C97.1263138,32.0532062 96.9897504,32.2336968 96.8987081,32.476343 C96.8076657,32.7193876 96.7463111,33.0425175 96.7150401,33.4453341 C96.6829774,33.8481507 96.6671439,34.3561539 96.6671439,34.9701404 C96.6671439,35.584127 96.6829774,36.0925286 96.7150401,36.4953452 C96.7463111,36.8981618 96.8076657,37.2204948 96.8987081,37.463141 C96.9897504,37.7065841 97.1263138,37.8862778 97.3083985,38.002222 C97.4908789,38.1173694 97.7362973,38.1954625 98.0454454,38.2353058 C98.3545934,38.2751492 98.7385544,38.2946725 99.198516,38.2946725 C99.4672888,38.2946725 99.7606034,38.2831179 100.077272,38.2592119 C100.393941,38.2353058 100.667068,38.2074155 100.897049,38.1759392 L100.897049,39.0250017 C100.730798,39.056478 100.534859,39.0823762 100.308836,39.1022979 C100.08321,39.1222196 99.8516457,39.1401491 99.6145398,39.155688 C99.3762465,39.1724222 99.1506199,39.1799925 98.9364725,39.1799925" id="Fill-12" fill="#000105"></path>
                <polyline id="Fill-13" fill="#000105" points="102.714728 39.0843684 102.714728 30.8551157 103.736777 30.8551157 103.736777 34.4792699 108.014579 34.4792699 108.014579 30.8551157 109.036232 30.8551157 109.036232 39.0843684 108.014579 39.0843684 108.014579 35.3888944 103.736777 35.3888944 103.736777 39.0843684 102.714728 39.0843684"></polyline>
                <polyline id="Fill-14" fill="#000105" points="111.22006 39.0843684 111.22006 30.8551157 112.242504 30.8551157 112.242504 38.1759392 116.056781 38.1759392 116.056781 39.0843684 111.22006 39.0843684"></polyline>
                <path d="M119.488285,35.9391316 L122.541765,35.9391316 L121.044713,31.9081763 L120.985733,31.9081763 L119.488285,35.9391316 Z M117.302082,39.0843684 L120.391187,30.8551157 L121.674884,30.8551157 L124.751718,39.0843684 L123.69444,39.0843684 L122.850913,36.8364046 L119.179137,36.8364046 L118.33561,39.0843684 L117.302082,39.0843684 L117.302082,39.0843684 Z" id="Fill-15" fill="#000105"></path>
                <polyline id="Fill-16" fill="#000105" points="126.410272 39.0843684 126.410272 30.8551157 127.456466 30.8551157 131.698247 37.1587376 131.745351 37.1587376 131.745351 30.8551157 132.731775 30.8551157 132.731775 39.0843684 131.745351 39.0843684 127.444591 32.6620132 127.396695 32.6620132 127.396695 39.0843684 126.410272 39.0843684"></polyline>
                <path d="M135.938047,38.1998452 L137.340495,38.1998452 C137.839248,38.1998452 138.251314,38.1878922 138.576295,38.1635877 C138.900881,38.1396817 139.157779,38.0779245 139.348176,37.9779176 C139.538573,37.8783091 139.67672,37.7149512 139.7642,37.4874455 C139.851679,37.2603382 139.908284,36.9431849 139.936784,36.5371808 C139.964097,36.1299814 139.977555,35.6084315 139.977555,34.9701404 C139.977555,34.3322479 139.964097,33.8118933 139.936784,33.4090766 C139.908284,33.00626 139.849304,32.6899035 139.758262,32.4584135 C139.66722,32.2277203 139.526698,32.0623702 139.336301,31.9615665 C139.146695,31.8623564 138.890589,31.8005992 138.570358,31.7766932 C138.248939,31.7527871 137.839248,31.7404357 137.340495,31.7404357 L135.938047,31.7404357 L135.938047,38.1998452 Z M134.915999,39.0843684 L134.915999,30.8551157 L137.50635,30.8551157 C138.179667,30.8551157 138.730671,30.8873888 139.157779,30.9515367 C139.585677,31.0152861 139.924909,31.1304335 140.174286,31.2985725 C140.423663,31.4655163 140.608122,31.7045766 140.726477,32.0157535 C140.845228,32.3269303 140.920833,32.7213798 140.952104,33.2002973 C140.984167,33.6784179 141,34.2688969 141,34.9701404 C141,35.671384 140.984167,36.2622614 140.952104,36.740382 C140.920833,37.2181042 140.845228,37.613749 140.726477,37.9249259 C140.608122,38.2353058 140.423663,38.4747646 140.174286,38.6417084 C139.924909,38.809449 139.585677,38.9249948 139.157779,38.9891427 C138.730671,39.0520952 138.179667,39.0843684 137.50635,39.0843684 L134.915999,39.0843684 L134.915999,39.0843684 Z" id="Fill-17" fill="#000105"></path>
            </g>
        </g>
    </g>
</svg>