<?xml version="1.0" encoding="UTF-8"?>
<svg width="250px" height="105px" viewBox="0 0 250 105" version="1.1" xmlns="http://www.w3.org/2000/svg" xmlns:xlink="http://www.w3.org/1999/xlink">
    <title>7472B802-0A62-4ECD-B513-2E7A16117F60</title>
    <defs>
        <polygon id="path-1" points="0 104.056354 250 104.056354 250 0 0 0"></polygon>
    </defs>
    <g id="Screendesign" stroke="none" stroke-width="1" fill="none" fill-rule="evenodd">
        <g id="00---Home---Desktop" transform="translate(-340.000000, -4120.000000)">
            <g id="Footer" transform="translate(0.000000, 4055.000000)">
                <g id="sfn-logo" transform="translate(340.000000, 65.471823)">
                    <path d="M90.0103372,23.2272073 C89.3490243,23.2272073 88.6233857,23.2102795 87.8334214,23.1752953 C87.0423285,23.1403112 86.2726776,23.0929133 85.5255971,23.0319732 C84.7785166,22.9710331 84.0923762,22.905579 83.4671759,22.8367392 L83.4671759,19.8901724 C84.109304,19.9432129 84.7661029,19.9951248 85.4341869,20.0470367 C86.1033996,20.0989487 86.7421421,20.1384469 87.3515431,20.1644029 C87.9598156,20.1903588 88.4811921,20.2039011 88.9145439,20.2039011 C89.801561,20.2039011 90.4877014,20.1644029 90.9740937,20.0865349 C91.460486,20.0075385 91.8249981,19.8901724 92.0687585,19.7344366 C92.260607,19.5956286 92.3903868,19.4432783 92.4603551,19.2773858 C92.5291948,19.1126218 92.5732071,18.9128737 92.5912634,18.6781415 C92.6081913,18.4434092 92.6172194,18.1793354 92.6172194,17.8836631 C92.6172194,17.4841669 92.594649,17.1535104 92.5517652,16.8928222 C92.5088815,16.6321339 92.4343991,16.4278717 92.3305752,16.2800356 C92.2256228,16.1321994 92.0563448,16.0238614 91.8216125,15.9538932 C91.5868803,15.8850534 91.2878224,15.8331415 90.9233103,15.7981574 L86.9080346,15.3027369 C86.1079136,15.1977845 85.4522433,15.0160927 84.939895,14.7554045 C84.4275467,14.4947163 84.0224079,14.147132 83.7278641,13.7126516 C83.4321917,13.2781713 83.2279295,12.7646945 83.1150775,12.1744783 C83.0010969,11.5842621 82.9446709,10.913921 82.9446709,10.1668405 C82.9446709,8.98527958 83.1105634,8.04635059 83.4412199,7.35118201 C83.7707478,6.65601343 84.2356983,6.12673736 84.8349426,5.76109674 C85.4341869,5.39658465 86.1428978,5.15733832 86.9599466,5.04448627 C87.7769953,4.93163423 88.6640124,4.87520821 89.6187407,4.87520821 C90.3150378,4.87520821 91.0260056,4.8966501 91.7572869,4.93953388 C92.486311,4.98354617 93.17358,5.03997219 93.8157081,5.10994046 C94.4589647,5.1787802 94.9983975,5.26567628 95.4328779,5.37062868 L95.4328779,8.23819906 C94.9983975,8.1682308 94.4939489,8.10729069 93.9206605,8.05537875 C93.3473721,8.00346681 92.7481278,7.9639686 92.121799,7.93801263 C91.4954701,7.91205666 90.9052539,7.89851442 90.3488934,7.89851442 C89.5318446,7.89851442 88.8852024,7.92898447 88.4067097,7.98992457 C87.9282171,8.05086467 87.5591909,8.15130299 87.2996312,8.290111 C87.0028303,8.46390315 86.8256526,8.68960723 86.7647125,8.96835177 C86.7026439,9.2459678 86.6733024,9.59355209 86.6733024,10.0111046 C86.6733024,10.5313526 86.707158,10.9274632 86.7782548,11.1960511 C86.845966,11.466896 87.012987,11.6531019 87.2725467,11.7569257 C87.5343634,11.8618781 87.9417593,11.9487742 88.4981199,12.0176139 L92.5133955,12.4870784 C92.9986593,12.5389904 93.451196,12.6258865 93.8687486,12.7477667 C94.2851726,12.8696469 94.6587129,13.0603668 94.9893693,13.321055 C95.3188973,13.5817432 95.5886137,13.9473839 95.79739,14.4157198 C95.9181416,14.6594802 96.0140659,14.9416104 96.0840341,15.2632387 C96.1528739,15.5859955 96.2092999,15.9459935 96.2533122,16.3454898 C96.296196,16.744986 96.3187664,17.1884945 96.3187664,17.6748868 C96.3187664,18.6826555 96.2183281,19.5256603 96.01858,20.2039011 C95.8188318,20.8810133 95.5367017,21.4204461 95.1710611,21.8199423 C94.806549,22.2194385 94.3596549,22.5230105 93.8292503,22.7329153 C93.2988457,22.9405631 92.7131437,23.074857 92.0687585,23.1357971 C91.4266304,23.1967372 90.7393614,23.2272073 90.0103372,23.2272073" id="Fill-1" fill="#1D1D1B"></path>
                    <path d="M106.780489,23.2272073 C105.458992,23.2272073 104.356427,23.1403112 103.46941,22.9665191 C102.582393,22.7927269 101.862397,22.4981831 101.304908,22.0806305 C100.748548,21.663078 100.327609,21.1078459 100.040965,20.4115488 C99.7543211,19.7175088 99.5590871,18.848548 99.4552632,17.8046667 C99.3503108,16.7619138 99.2983989,15.5115132 99.2983989,14.0512077 C99.2983989,12.5909023 99.3503108,11.3405017 99.4552632,10.2966203 C99.5590871,9.25499596 99.7543211,8.38603524 100.040965,7.68973814 C100.327609,6.99569808 100.748548,6.43933751 101.304908,6.02178496 C101.862397,5.60536092 102.582393,5.30968857 103.46941,5.13589643 C104.356427,4.96210428 105.458992,4.87520821 106.780489,4.87520821 C107.283809,4.87520821 107.8097,4.89213602 108.357032,4.92712015 C108.904365,4.96210428 109.430255,5.01401622 109.934704,5.08398449 C110.438024,5.15282424 110.863476,5.23182066 111.212189,5.31758822 L111.212189,8.15920263 C110.742724,8.10729069 110.290188,8.05989284 109.856836,8.01588054 C109.422356,7.97299676 109.017217,7.94252671 108.643676,7.92447039 C108.270136,7.90754258 107.953022,7.89851442 107.693462,7.89851442 C106.805317,7.89851442 106.076292,7.93349855 105.503004,8.00346681 C104.928587,8.07230656 104.472665,8.21675717 104.134109,8.43343309 C103.794424,8.65010902 103.547278,8.9807655 103.391542,9.42427402 C103.234678,9.86778255 103.130854,10.4625128 103.078942,11.2095933 C103.025902,11.9578024 102.999946,12.904631 102.999946,14.0512077 C102.999946,15.1808567 103.025902,16.1242998 103.078942,16.8792799 C103.130854,17.6353886 103.234678,18.2357615 103.391542,18.6781415 C103.547278,19.12165 103.794424,19.4523065 104.134109,19.6689824 C104.472665,19.8867868 104.928587,20.0301089 105.503004,20.0989487 C106.076292,20.1689169 106.805317,20.2039011 107.693462,20.2039011 C108.265622,20.2039011 108.891951,20.1768166 109.570192,20.1249046 C110.247304,20.0729927 110.829621,20.0120526 111.317141,19.9432129 L111.317141,22.8367392 C110.933444,22.905579 110.482036,22.9710331 109.959531,23.0319732 C109.438155,23.0929133 108.904365,23.1403112 108.357032,23.1752953 C107.8097,23.2102795 107.283809,23.2272073 106.780489,23.2272073" id="Fill-3" fill="#1D1D1B"></path>
                    <polygon id="Fill-5" fill="#1D1D1B" points="114.5016 23.0188824 114.5016 5.08330738 118.203147 5.08330738 118.203147 12.4085334 125.345553 12.4085334 125.345553 5.08330738 129.048228 5.08330738 129.048228 23.0188824 125.345553 23.0188824 125.345553 15.5898325 118.203147 15.5898325 118.203147 23.0188824"></polygon>
                    <mask id="mask-2" fill="white">
                        <use xlink:href="#path-1"></use>
                    </mask>
                    <g id="Clip-8"></g>
                    <path d="M141.21176,2.60688217 L144.15607,2.60688217 L144.15607,0 L141.21176,0 L141.21176,2.60688217 Z M135.815175,2.60688217 L138.759485,2.60688217 L138.759485,0 L135.815175,0 L135.815175,2.60688217 Z M139.986187,23.2272073 C138.716601,23.2272073 137.655792,23.1493394 136.804888,22.992475 C135.955112,22.8367392 135.266715,22.5850792 134.746467,22.2374949 C134.223962,21.8887821 133.830108,21.4023898 133.560392,20.7771894 C133.289547,20.1508606 133.106726,19.3654104 133.011931,18.4174532 C132.917135,17.4706246 132.868609,16.3364616 132.868609,15.0160927 L132.868609,5.08398449 L136.571284,5.08398449 L136.571284,15.9538932 C136.571284,16.8758944 136.600626,17.6184608 136.661566,18.182721 C136.723634,18.7481097 136.853414,19.178076 137.052034,19.4737484 C137.25291,19.7694207 137.588081,19.9646547 138.057546,20.0594505 C138.52701,20.1553747 139.16801,20.2039011 139.986187,20.2039011 C140.800979,20.2039011 141.44085,20.1553747 141.901286,20.0594505 C142.361722,19.9646547 142.696893,19.7694207 142.906798,19.4737484 C143.113317,19.178076 143.243097,18.7481097 143.296137,18.182721 C143.349178,17.6184608 143.374005,16.8758944 143.374005,15.9538932 L143.374005,5.08398449 L147.076681,5.08398449 L147.076681,15.0160927 C147.076681,16.3364616 147.028154,17.4706246 146.933359,18.4174532 C146.836306,19.3654104 146.660257,20.1508606 146.397311,20.7771894 C146.137752,21.4023898 145.747284,21.8887821 145.224779,22.2374949 C144.704531,22.5850792 144.017262,22.8367392 143.166357,22.992475 C142.313196,23.1493394 141.253515,23.2272073 139.986187,23.2272073 L139.986187,23.2272073 Z" id="Fill-7" fill="#1D1D1B" mask="url(#mask-2)"></path>
                    <polygon id="Fill-9" fill="#1D1D1B" mask="url(#mask-2)" points="150.911844 23.0188824 150.911844 5.08330738 154.613391 5.08330738 154.613391 19.8906238 162.121438 19.8906238 162.121438 23.0188824"></polygon>
                    <polygon id="Fill-10" fill="#1D1D1B" mask="url(#mask-2)" points="165.025008 23.0188824 165.025008 5.08330738 177.276226 5.08330738 177.276226 8.1077421 168.726555 8.1077421 168.726555 12.4615739 176.051781 12.4615739 176.051781 15.4848801 168.726555 15.4848801 168.726555 19.9944477 177.276226 19.9944477 177.276226 23.0188824"></polygon>
                    <path d="M184.266055,13.4518505 L187.655002,13.4518505 C188.384026,13.4518505 188.957315,13.4078383 189.374867,13.3209422 C189.791291,13.2351746 190.10502,13.090724 190.312668,12.8909759 C190.522573,12.6912278 190.652353,12.4215114 190.704264,12.0829553 C190.757305,11.7443992 190.782132,11.3054047 190.782132,10.7671005 C190.782132,10.2287962 190.757305,9.78415918 190.704264,9.4365749 C190.652353,9.09011913 190.530472,8.82040275 190.339752,8.6296828 C190.147904,8.43783432 189.839818,8.29902631 189.414366,8.21213024 C188.988913,8.12523417 188.411111,8.08122187 187.67983,8.08122187 L184.266055,8.08122187 L184.266055,13.4518505 Z M180.564508,23.0194467 L180.564508,5.08387164 L189.140135,5.08387164 C190.304768,5.08387164 191.239183,5.21365149 191.94338,5.4743397 C192.646448,5.73502792 193.180238,6.11308226 193.547007,6.60850272 C193.911519,7.10392319 194.158665,7.70316753 194.289574,8.40736427 C194.419354,9.11156101 194.484808,9.89813975 194.484808,10.7671005 C194.484808,11.375373 194.432896,12.0265293 194.327944,12.7216978 C194.22412,13.4168664 193.992773,14.0601231 193.637289,14.6503392 C193.280677,15.2416839 192.719802,15.6761643 191.955794,15.9537803 L194.823364,23.0194467 L190.913041,23.0194467 L188.201206,15.8240005 L189.114179,16.3194209 C188.992299,16.3713329 188.850105,16.406317 188.684213,16.4232448 C188.519449,16.4413011 188.333243,16.4492008 188.123338,16.4492008 L184.266055,16.4492008 L184.266055,23.0194467 L180.564508,23.0194467 Z" id="Fill-11" fill="#1D1D1B" mask="url(#mask-2)"></path>
                    <polygon id="Fill-12" fill="#1D1D1B" mask="url(#mask-2)" points="83.7010053 51.9492933 83.7010053 34.0137183 95.4331036 34.0137183 95.4331036 37.038153 87.4025523 37.038153 87.4025523 41.8862767 94.4682186 41.8862767 94.4682186 44.9107115 87.4025523 44.9107115 87.4025523 51.9492933"></polygon>
                    <path d="M105.633235,49.1340863 C106.398372,49.1340863 107.019058,49.1081303 107.496423,49.0562184 C107.974915,49.0031779 108.35297,48.8824262 108.630586,48.6905778 C108.908202,48.4998578 109.113592,48.1872577 109.243372,47.7516488 C109.373152,47.3182969 109.456663,46.7179241 109.491647,45.9539157 C109.525502,45.1887789 109.543559,44.197938 109.543559,42.981393 C109.543559,41.7648479 109.525502,40.7751355 109.491647,40.0099987 C109.456663,39.2448618 109.373152,38.6456175 109.243372,38.2111371 C109.113592,37.7766568 108.908202,37.4640566 108.630586,37.2722082 C108.35297,37.0814882 107.974915,36.959608 107.496423,36.9076961 C107.019058,36.8557841 106.398372,36.8298281 105.633235,36.8298281 C104.886155,36.8298281 104.273368,36.8557841 103.794876,36.9076961 C103.316383,36.959608 102.938329,37.0814882 102.660713,37.2722082 C102.383097,37.4640566 102.178834,37.7766568 102.047926,38.2111371 C101.918146,38.6456175 101.835764,39.2448618 101.80078,40.0099987 C101.765796,40.7751355 101.748868,41.7648479 101.748868,42.981393 C101.748868,44.197938 101.765796,45.1887789 101.80078,45.9539157 C101.835764,46.7179241 101.918146,47.3182969 102.047926,47.7516488 C102.178834,48.1872577 102.383097,48.4998578 102.660713,48.6905778 C102.938329,48.8824262 103.316383,49.0031779 103.794876,49.0562184 C104.273368,49.1081303 104.886155,49.1340863 105.633235,49.1340863 M105.633235,52.1573925 C104.17293,52.1573925 102.969927,52.0704964 102.023099,51.8967043 C101.075141,51.7229121 100.332575,51.4328824 99.7931422,51.024358 C99.254838,50.6158336 98.8632414,50.059473 98.6206095,49.3552763 C98.3768491,48.6510795 98.2211133,47.7787333 98.151145,46.7359804 C98.0823053,45.6932275 98.0461926,44.4416984 98.0461926,42.981393 C98.0461926,41.5210875 98.0823053,40.2706869 98.151145,39.227934 C98.2211133,38.1851812 98.3768491,37.3117064 98.6206095,36.6075096 C98.8632414,35.9033129 99.254838,35.3480808 99.7931422,34.9395564 C100.332575,34.5310321 101.075141,34.2398738 102.023099,34.0660816 C102.969927,33.8922895 104.17293,33.8053934 105.633235,33.8053934 C107.092412,33.8053934 108.295415,33.8922895 109.243372,34.0660816 C110.190201,34.2398738 110.932767,34.5310321 111.4722,34.9395564 C112.010504,35.3480808 112.406615,35.9033129 112.659404,36.6075096 C112.909935,37.3117064 113.071313,38.1851812 113.140153,39.227934 C113.210121,40.2706869 113.245106,41.5210875 113.245106,42.981393 C113.245106,44.4416984 113.210121,45.6932275 113.140153,46.7359804 C113.071313,47.7787333 112.909935,48.6510795 112.659404,49.3552763 C112.406615,50.059473 112.010504,50.6158336 111.4722,51.024358 C110.932767,51.4328824 110.190201,51.7229121 109.243372,51.8967043 C108.295415,52.0704964 107.092412,52.1573925 105.633235,52.1573925" id="Fill-13" fill="#1D1D1B" mask="url(#mask-2)"></path>
                    <path d="M120.460527,42.3822615 L123.849473,42.3822615 C124.578498,42.3822615 125.152915,42.3382492 125.569339,42.2513531 C125.986891,42.1655855 126.299491,42.0211349 126.508268,41.8213868 C126.717044,41.6216387 126.846824,41.3519223 126.898736,41.0133662 C126.951776,40.6748101 126.976604,40.2358156 126.976604,39.6975114 C126.976604,39.1592071 126.951776,38.7145701 126.898736,38.3669858 C126.846824,38.02053 126.726072,37.7508137 126.534224,37.5600937 C126.343504,37.3682452 126.034289,37.2294372 125.608837,37.1425412 C125.183385,37.0556451 124.605582,37.0116328 123.875429,37.0116328 L120.460527,37.0116328 L120.460527,42.3822615 Z M116.75898,51.9498576 L116.75898,34.0142826 L125.334606,34.0142826 C126.500368,34.0142826 127.433654,34.1440624 128.137851,34.4047506 C128.842048,34.6654388 129.375838,35.0434932 129.741479,35.5389136 C130.105991,36.0343341 130.354265,36.6335784 130.484045,37.3377752 C130.613825,38.0419719 130.679279,38.8285507 130.679279,39.6975114 C130.679279,40.3057839 130.627367,40.9569402 130.522415,41.6521088 C130.418591,42.3472773 130.188373,42.990534 129.832889,43.5807502 C129.475148,44.1720948 128.915402,44.6065752 128.150265,44.8841912 L131.017835,51.9498576 L127.10864,51.9498576 L124.396806,44.7544114 L125.309779,45.2498319 C125.18677,45.3017438 125.044577,45.3367279 124.878684,45.3536557 C124.71392,45.3717121 124.527714,45.3796117 124.318938,45.3796117 L120.460527,45.3796117 L120.460527,51.9498576 L116.75898,51.9498576 Z" id="Fill-14" fill="#1D1D1B" mask="url(#mask-2)"></path>
                    <path d="M140.723224,52.1576182 C140.063039,52.1576182 139.336272,52.1406904 138.546308,52.1057063 C137.755215,52.0707221 136.985564,52.0233243 136.238483,51.9623842 C135.491403,51.9014441 134.805263,51.8359899 134.180062,51.7671501 L134.180062,48.8205833 C134.82219,48.8736238 135.478989,48.9255357 136.148202,48.9774476 C136.817414,49.0293596 137.455028,49.0688578 138.064429,49.0948138 C138.672702,49.1207697 139.194078,49.134312 139.628559,49.134312 C140.514447,49.134312 141.201716,49.0948138 141.68698,49.0169459 C142.174501,48.9379494 142.539013,48.8205833 142.782773,48.6648475 C142.973493,48.5260395 143.103273,48.3736892 143.17437,48.2077967 C143.242081,48.0430327 143.286093,47.8432846 143.30415,47.6085524 C143.321078,47.3738201 143.330106,47.1097464 143.330106,46.814074 C143.330106,46.4145778 143.308664,46.0839213 143.264652,45.8232331 C143.221768,45.5625449 143.147285,45.3582827 143.043462,45.2104465 C142.939638,45.0626103 142.769231,44.9542724 142.534499,44.8843041 C142.299767,44.8154643 142.000709,44.7635524 141.636197,44.7285683 L137.620921,44.2331478 C136.821929,44.1281954 136.16513,43.9465036 135.652781,43.6858154 C135.140433,43.4251272 134.735294,43.0775429 134.44075,42.6430625 C134.145078,42.2085822 133.940816,41.6951054 133.827964,41.1048892 C133.715112,40.514673 133.658686,39.8443319 133.658686,39.0972514 C133.658686,37.9156905 133.82345,36.9767615 134.154106,36.2815929 C134.483634,35.5864244 134.949713,35.0571483 135.548957,34.6915077 C136.148202,34.3269956 136.855784,34.0877492 137.672833,33.9748972 C138.489882,33.8620451 139.376899,33.8056191 140.331627,33.8056191 C141.027924,33.8056191 141.74002,33.827061 142.470173,33.8699448 C143.199197,33.9139571 143.886466,33.9703831 144.529723,34.0403514 C145.171851,34.1091911 145.711284,34.1960872 146.145764,34.3010396 L146.145764,37.16861 C145.711284,37.0986417 145.207964,37.0377016 144.633547,36.9857897 C144.060258,36.9338777 143.461014,36.8943795 142.834685,36.8684235 C142.208356,36.8424676 141.61814,36.8289253 141.062908,36.8289253 C140.244731,36.8289253 139.598089,36.8593954 139.119596,36.9203355 C138.641103,36.9812756 138.273206,37.0817139 138.012518,37.2205219 C137.716845,37.3943141 137.538539,37.6200181 137.477599,37.8987627 C137.416659,38.1763787 137.386189,38.523963 137.386189,38.9415156 C137.386189,39.4617635 137.421173,39.8578741 137.491141,40.126462 C137.559981,40.3973069 137.725873,40.5835128 137.985433,40.6873366 C138.24725,40.792289 138.654646,40.8791851 139.211006,40.9480249 L143.226282,41.4174894 C143.711546,41.4694013 144.164082,41.5562974 144.581635,41.6781776 C144.998059,41.8000578 145.371599,41.9907777 145.702256,42.2514659 C146.031784,42.5121542 146.3015,42.8777948 146.510276,43.3461308 C146.631028,43.5898912 146.726952,43.8720213 146.798049,44.1936496 C146.86576,44.5164064 146.923315,44.8764044 146.966199,45.2759007 C147.009082,45.6753969 147.031653,46.1189054 147.031653,46.6052977 C147.031653,47.6130665 146.931214,48.4560712 146.731466,49.134312 C146.531718,49.8114242 146.249588,50.350857 145.885076,50.7503532 C145.519435,51.1498495 145.072541,51.4534214 144.542137,51.6633262 C144.011732,51.870974 143.42603,52.0052679 142.782773,52.066208 C142.139517,52.1271481 141.452248,52.1576182 140.723224,52.1576182" id="Fill-15" fill="#1D1D1B" mask="url(#mask-2)"></path>
                    <path d="M157.49236,52.1576182 C156.171991,52.1576182 155.069427,52.0707221 154.181281,51.89693 C153.295392,51.7231378 152.574268,51.428594 152.017907,51.0110414 C151.461547,50.5934889 151.040609,50.0382568 150.753964,49.3419597 C150.46732,48.6479197 150.272086,47.778959 150.168262,46.7350776 C150.06331,45.6923247 150.011398,44.4419241 150.011398,42.9816187 C150.011398,41.5213132 150.06331,40.2709126 150.168262,39.2270312 C150.272086,38.1854069 150.46732,37.3164462 150.753964,36.6201491 C151.040609,35.926109 151.461547,35.3697484 152.017907,34.9521959 C152.574268,34.5357718 153.295392,34.2400995 154.181281,34.0663073 C155.069427,33.8925152 156.171991,33.8056191 157.49236,33.8056191 C157.996809,33.8056191 158.522699,33.8225469 159.068903,33.8575311 C159.617364,33.8925152 160.143254,33.9444271 160.647703,34.0143954 C161.151023,34.0832352 161.576475,34.1622316 161.925188,34.2479991 L161.925188,37.0896135 C161.455724,37.0377016 161.003187,36.9903038 160.569835,36.9462915 C160.134226,36.9034077 159.730216,36.8729376 159.356676,36.8548813 C158.982007,36.8379535 158.666021,36.8289253 158.405333,36.8289253 C157.518316,36.8289253 156.789292,36.8639095 156.214875,36.9338777 C155.641586,37.0027175 155.185664,37.1471681 154.84598,37.363844 C154.507423,37.5805199 154.260277,37.9111764 154.103413,38.3546849 C153.946549,38.7981935 153.843853,39.3929237 153.790813,40.1400042 C153.738901,40.8882133 153.712945,41.8350419 153.712945,42.9816187 C153.712945,44.1112676 153.738901,45.0547107 153.790813,45.8096908 C153.843853,46.5657995 153.946549,47.1661724 154.103413,47.6085524 C154.260277,48.0520609 154.507423,48.3827174 154.84598,48.5993933 C155.185664,48.8171977 155.641586,48.9605198 156.214875,49.0293596 C156.789292,49.0993279 157.518316,49.134312 158.405333,49.134312 C158.978621,49.134312 159.603822,49.1072275 160.282062,49.0553156 C160.959175,49.0034036 161.54262,48.9424635 162.029012,48.8736238 L162.029012,51.7671501 C161.646444,51.8359899 161.193907,51.9014441 160.67253,51.9623842 C160.151154,52.0233243 159.617364,52.0707221 159.068903,52.1057063 C158.522699,52.1406904 157.996809,52.1576182 157.49236,52.1576182" id="Fill-16" fill="#1D1D1B" mask="url(#mask-2)"></path>
                    <polygon id="Fill-17" fill="#1D1D1B" mask="url(#mask-2)" points="165.215615 51.9492933 165.215615 34.0137183 168.917162 34.0137183 168.917162 41.3389443 176.059568 41.3389443 176.059568 34.0137183 179.762243 34.0137183 179.762243 51.9492933 176.059568 51.9492933 176.059568 44.5202434 168.917162 44.5202434 168.917162 51.9492933"></polygon>
                    <path d="M190.698848,52.1576182 C189.430391,52.1576182 188.37071,52.0797503 187.519806,51.9228859 C186.667773,51.7671501 185.980504,51.5154901 185.459127,51.1679058 C184.938879,50.819193 184.542769,50.3328007 184.274181,49.7076004 C184.003336,49.0812715 183.820516,48.2958213 183.72572,47.3478642 C183.629796,46.4010355 183.582398,45.2668725 183.582398,43.9465036 L183.582398,34.0143954 L187.285073,34.0143954 L187.285073,44.8843041 C187.285073,45.8063053 187.314415,46.5488717 187.375355,47.1131319 C187.436295,47.6785206 187.567203,48.1084869 187.765823,48.4041593 C187.965571,48.6998316 188.300742,48.8950657 188.770206,48.9898614 C189.239671,49.0857856 189.881799,49.134312 190.698848,49.134312 C191.515896,49.134312 192.154639,49.0857856 192.615075,48.9898614 C193.075512,48.8950657 193.409554,48.6998316 193.619458,48.4041593 C193.827106,48.1084869 193.958015,47.6785206 194.011055,47.1131319 C194.061838,46.5488717 194.087794,45.8063053 194.087794,44.8843041 L194.087794,34.0143954 L197.789341,34.0143954 L197.789341,43.9465036 C197.789341,45.2668725 197.741943,46.4010355 197.646019,47.3478642 C197.550095,48.2958213 197.372917,49.0812715 197.112229,49.7076004 C196.851541,50.3328007 196.459944,50.819193 195.939696,51.1679058 C195.41832,51.5154901 194.731051,51.7671501 193.879018,51.9228859 C193.026985,52.0797503 191.967305,52.1576182 190.698848,52.1576182" id="Fill-18" fill="#1D1D1B" mask="url(#mask-2)"></path>
                    <polygon id="Fill-19" fill="#1D1D1B" mask="url(#mask-2)" points="201.624731 51.9492933 201.624731 34.0137183 205.457186 34.0137183 212.520595 45.0664473 212.651504 45.0664473 212.651504 34.0137183 216.196187 34.0137183 216.196187 51.9492933 212.67746 51.9492933 205.300322 40.2961915 205.170542 40.2961915 205.170542 51.9492933"></polygon>
                    <path d="M227.552036,52.1576182 C226.248595,52.1576182 225.140388,52.0707221 224.228543,51.89693 C223.31557,51.7231378 222.559462,51.4319796 221.960217,51.0245837 C221.360973,50.6160593 220.896023,50.0642128 220.566495,49.3679157 C220.235838,48.6738757 220.00562,47.8004009 219.874712,46.7486198 C219.744932,45.6968388 219.679478,44.4419241 219.679478,42.9816187 C219.679478,41.5213132 219.744932,40.2663985 219.874712,39.2146175 C220.00562,38.163965 220.240352,37.2904902 220.578908,36.5941931 C220.917465,35.900153 221.386929,35.347178 221.986173,34.9397822 C222.586546,34.5312578 223.338141,34.2400995 224.240957,34.0663073 C225.144902,33.8925152 226.248595,33.8056191 227.552036,33.8056191 C228.126453,33.8056191 228.764067,33.8315751 229.468264,33.883487 C230.171332,33.9365275 230.871015,34.0008532 231.567312,34.0787211 C232.26248,34.1577175 232.904608,34.2581558 233.495953,34.3789075 L233.495953,37.2205219 C232.887681,37.1336258 232.296336,37.0636576 231.723048,37.0117456 C231.149759,36.9598337 230.628383,36.9169499 230.160047,36.8808373 C229.690582,36.8469817 229.298986,36.8289253 228.986386,36.8289253 C227.995545,36.8289253 227.169468,36.8514957 226.509283,36.8943795 C225.849099,36.9383918 225.310795,37.0557579 224.893242,37.2464779 C224.475689,37.4383264 224.158575,37.7509265 223.941899,38.1854069 C223.724095,38.6198872 223.572873,39.2236457 223.484848,39.9966821 C223.397952,40.7708472 223.355069,41.7650736 223.355069,42.9816187 C223.355069,44.0593557 223.385539,44.9633005 223.446479,45.6923247 C223.507419,46.4224774 223.620271,47.0228503 223.785035,47.4911863 C223.950927,47.9606508 224.192431,48.3217773 224.515188,48.5734373 C224.836816,48.8250974 225.254369,48.995504 225.766717,49.0812715 C226.279065,49.1692961 226.917808,49.2121799 227.681816,49.2121799 C227.96056,49.2121799 228.251719,49.2076658 228.556419,49.1986377 C228.859991,49.190738 229.146635,49.1771958 229.416352,49.160268 C229.686068,49.1433401 229.907258,49.1252838 230.08105,49.1072275 L230.08105,44.6766563 L227.082572,44.6766563 L227.082572,41.7560455 L233.573821,41.7560455 L233.573821,51.5843298 C232.982476,51.70621 232.32342,51.8055198 231.593268,51.8845162 C230.863115,51.9623842 230.151019,52.0278383 229.45585,52.0797503 C228.759553,52.1316622 228.126453,52.1576182 227.552036,52.1576182" id="Fill-20" fill="#1D1D1B" mask="url(#mask-2)"></path>
                    <path d="M243.691909,52.1576182 C243.031725,52.1576182 242.304958,52.1406904 241.514994,52.1057063 C240.723901,52.0707221 239.95425,52.0233243 239.207169,51.9623842 C238.460089,51.9014441 237.773948,51.8359899 237.148748,51.7671501 L237.148748,48.8205833 C237.790876,48.8736238 238.447675,48.9255357 239.116888,48.9774476 C239.7861,49.0293596 240.423714,49.0688578 241.033115,49.0948138 C241.641388,49.1207697 242.162764,49.134312 242.597245,49.134312 C243.483133,49.134312 244.170402,49.0948138 244.655666,49.0169459 C245.143187,48.9379494 245.507699,48.8205833 245.751459,48.6648475 C245.942179,48.5260395 246.071959,48.3736892 246.143056,48.2077967 C246.210767,48.0430327 246.254779,47.8432846 246.272836,47.6085524 C246.289763,47.3738201 246.298792,47.1097464 246.298792,46.814074 C246.298792,46.4145778 246.27735,46.0839213 246.233337,45.8232331 C246.190454,45.5625449 246.115971,45.3582827 246.012147,45.2104465 C245.908324,45.0626103 245.737917,44.9542724 245.503185,44.8843041 C245.268452,44.8154643 244.969395,44.7635524 244.604882,44.7285683 L240.589607,44.2331478 C239.790614,44.1281954 239.133815,43.9465036 238.621467,43.6858154 C238.109119,43.4251272 237.70398,43.0775429 237.409436,42.6430625 C237.113764,42.2085822 236.909502,41.6951054 236.79665,41.1048892 C236.683798,40.514673 236.627372,39.8443319 236.627372,39.0972514 C236.627372,37.9156905 236.792136,36.9767615 237.122792,36.2815929 C237.45232,35.5864244 237.918399,35.0571483 238.517643,34.6915077 C239.116888,34.3269956 239.82447,34.0877492 240.641519,33.9748972 C241.458568,33.8620451 242.345585,33.8056191 243.300313,33.8056191 C243.99661,33.8056191 244.708706,33.827061 245.438859,33.8699448 C246.167883,33.9139571 246.855152,33.9703831 247.498409,34.0403514 C248.140537,34.1091911 248.67997,34.1960872 249.11445,34.3010396 L249.11445,37.16861 C248.67997,37.0986417 248.17665,37.0377016 247.602233,36.9857897 C247.028944,36.9338777 246.4297,36.8943795 245.803371,36.8684235 C245.177042,36.8424676 244.586826,36.8289253 244.031594,36.8289253 C243.213417,36.8289253 242.566775,36.8593954 242.088282,36.9203355 C241.609789,36.9812756 241.241892,37.0817139 240.981203,37.2205219 C240.685531,37.3943141 240.507225,37.6200181 240.446285,37.8987627 C240.385345,38.1763787 240.354875,38.523963 240.354875,38.9415156 C240.354875,39.4617635 240.389859,39.8578741 240.459827,40.126462 C240.528667,40.3973069 240.694559,40.5835128 240.954119,40.6873366 C241.215936,40.792289 241.623331,40.8791851 242.179692,40.9480249 L246.194968,41.4174894 C246.680231,41.4694013 247.132768,41.5562974 247.550321,41.6781776 C247.966745,41.8000578 248.340285,41.9907777 248.670942,42.2514659 C249.000469,42.5121542 249.270186,42.8777948 249.478962,43.3461308 C249.599714,43.5898912 249.695638,43.8720213 249.766735,44.1936496 C249.834446,44.5164064 249.892001,44.8764044 249.934884,45.2759007 C249.977768,45.6753969 250.000339,46.1189054 250.000339,46.6052977 C250.000339,47.6130665 249.8999,48.4560712 249.700152,49.134312 C249.500404,49.8114242 249.218274,50.350857 248.853762,50.7503532 C248.488121,51.1498495 248.041227,51.4534214 247.510823,51.6633262 C246.980418,51.870974 246.394716,52.0052679 245.751459,52.066208 C245.108203,52.1271481 244.420934,52.1576182 243.691909,52.1576182" id="Fill-21" fill="#1D1D1B" mask="url(#mask-2)"></path>
                    <polygon id="Fill-22" fill="#1D1D1B" mask="url(#mask-2)" points="83.7010053 80.8792528 83.7010053 62.9436778 87.5334606 62.9436778 94.5979985 73.9964068 94.7277783 73.9964068 94.7277783 62.9436778 98.2735895 62.9436778 98.2735895 80.8792528 94.7548628 80.8792528 87.3777248 69.226151 87.2468164 69.226151 87.2468164 80.8792528"></polygon>
                    <polygon id="Fill-23" fill="#1D1D1B" mask="url(#mask-2)" points="102.206935 80.8792528 102.206935 62.9436778 114.459281 62.9436778 114.459281 65.9681125 105.908482 65.9681125 105.908482 70.3219443 113.233708 70.3219443 113.233708 73.3452505 105.908482 73.3452505 105.908482 77.8548181 114.459281 77.8548181 114.459281 80.8792528"></polygon>
                    <polygon id="Fill-24" fill="#1D1D1B" mask="url(#mask-2)" points="122.155564 80.8792528 122.155564 66.0719364 116.966627 66.0719364 116.966627 62.9436778 131.04492 62.9436778 131.04492 66.0719364 125.857111 66.0719364 125.857111 80.8792528"></polygon>
                    <polygon id="Fill-25" fill="#1D1D1B" mask="url(#mask-2)" points="133.301848 80.8792528 133.301848 77.9857265 142.086251 65.9681125 133.588492 65.9681125 133.588492 62.9436778 146.752682 62.9436778 146.752682 65.7333803 137.863327 77.8807741 146.83055 77.8807741 146.83055 80.8792528"></polygon>
                    <polygon id="Fill-26" fill="#1D1D1B" mask="url(#mask-2)" points="153.510601 80.8792528 149.182726 62.9436778 152.884272 62.9436778 156.038487 76.577333 156.168267 76.577333 159.63621 62.9436778 163.494621 62.9436778 167.014477 76.577333 167.144257 76.577333 170.089695 62.9436778 173.79237 62.9436778 169.438539 80.8792528 164.824019 80.8792528 161.538896 68.3402624 161.409116 68.3402624 158.125121 80.8792528"></polygon>
                    <polygon id="Fill-27" fill="#1D1D1B" mask="url(#mask-2)" points="176.657345 80.8792528 176.657345 62.9436778 188.908563 62.9436778 188.908563 65.9681125 180.358892 65.9681125 180.358892 70.3219443 187.684118 70.3219443 187.684118 73.3452505 180.358892 73.3452505 180.358892 77.8548181 188.908563 77.8548181 188.908563 80.8792528"></polygon>
                    <path d="M195.898393,71.312221 L199.287339,71.312221 C200.016364,71.312221 200.589652,71.2682087 201.007204,71.1813126 C201.423629,71.0955451 201.737357,70.9510944 201.945005,70.7513463 C202.15491,70.5515982 202.28469,70.2818818 202.336602,69.9433257 C202.389642,69.6047696 202.414469,69.1657751 202.414469,68.6274709 C202.414469,68.0891667 202.389642,67.6445296 202.336602,67.2969453 C202.28469,66.9504896 202.162809,66.6807732 201.972089,66.4900532 C201.780241,66.2982047 201.472155,66.1593967 201.046703,66.0725007 C200.62125,65.9856046 200.043448,65.9415923 199.312167,65.9415923 L195.898393,65.9415923 L195.898393,71.312221 Z M192.196846,80.8798171 L192.196846,62.9442421 L200.772472,62.9442421 C201.937105,62.9442421 202.87152,63.0740219 203.575717,63.3347101 C204.278785,63.5953983 204.812575,63.9734527 205.179344,64.4688731 C205.543857,64.9642936 205.791003,65.563538 205.921911,66.2677347 C206.051691,66.9719314 206.117145,67.7585102 206.117145,68.6274709 C206.117145,69.2357434 206.065233,69.8868997 205.960281,70.5820683 C205.856457,71.2772368 205.62511,71.9204935 205.269626,72.5107097 C204.913014,73.1020544 204.352139,73.5365347 203.588131,73.8141507 L206.455701,80.8798171 L202.545378,80.8798171 L199.833543,73.6843709 L200.746516,74.1797914 C200.624636,74.2317033 200.482442,74.2666874 200.31655,74.2836152 C200.151786,74.3016716 199.96558,74.3095712 199.755675,74.3095712 L195.898393,74.3095712 L195.898393,80.8798171 L192.196846,80.8798171 Z" id="Fill-28" fill="#1D1D1B" mask="url(#mask-2)"></path>
                    <polygon id="Fill-29" fill="#1D1D1B" mask="url(#mask-2)" points="209.627972 80.8792528 209.627972 62.9436778 213.329519 62.9436778 213.329519 70.2429479 215.232204 70.2429479 220.680701 62.9436778 224.721933 62.9436778 218.204727 71.520433 224.7998 80.8792528 220.550921 80.8792528 215.232204 73.2673826 213.329519 73.2673826 213.329519 80.8792528"></polygon>
                    <path d="M85.4742494,102.618167 L87.5428273,102.618167 C88.2797512,102.618167 88.8868952,102.600111 89.3665163,102.565127 C89.8461375,102.530143 90.2264489,102.439861 90.5074505,102.293153 C90.7873236,102.147574 90.9927143,101.908328 91.1213656,101.574286 C91.2488884,101.241372 91.3335274,100.776422 91.3752827,100.180563 C91.4170379,99.5847045 91.4362228,98.8184391 91.4362228,97.8828957 C91.4362228,96.9473523 91.4170379,96.1844725 91.3752827,95.5942563 C91.3335274,95.0040401 91.2466314,94.5390897 91.1123374,94.2005336 C90.9780435,93.8608489 90.7703957,93.618217 90.4893942,93.4726379 C90.2083926,93.3259302 89.8314668,93.2356486 89.3574882,93.2006645 C88.8846381,93.1656803 88.2797512,93.147624 87.5428273,93.147624 L85.4742494,93.147624 L85.4742494,102.618167 Z M83.9654176,103.915966 L83.9654176,91.8498255 L87.7888448,91.8498255 C88.7830713,91.8498255 89.5944775,91.8972234 90.2264489,91.9908906 C90.8584203,92.0845578 91.3583549,92.2527073 91.7262525,92.4987248 C92.0941502,92.7436137 92.3661236,93.0957121 92.5421728,93.5505058 C92.7170935,94.0075566 92.828817,94.585359 92.8750863,95.2872987 C92.9213557,95.9881099 92.9450546,96.8548136 92.9450546,97.8828957 C92.9450546,98.9121063 92.9213557,99.776553 92.8750863,100.478493 C92.828817,101.180432 92.7170935,101.758235 92.5421728,102.215286 C92.3661236,102.670079 92.0941502,103.021049 91.7262525,103.267067 C91.3583549,103.511956 90.8584203,103.682362 90.2264489,103.774901 C89.5944775,103.868568 88.7830713,103.915966 87.7888448,103.915966 L83.9654176,103.915966 Z" id="Fill-30" fill="#1D1D1B" mask="url(#mask-2)"></path>
                    <polygon id="Fill-31" fill="#1D1D1B" mask="url(#mask-2)" points="95.8777406 103.915853 95.8777406 91.8497127 103.716443 91.8497127 103.716443 93.1475112 97.3854439 93.1475112 97.3854439 97.1639153 102.892624 97.1639153 102.892624 98.4797701 97.3854439 98.4797701 97.3854439 102.618055 103.716443 102.618055 103.716443 103.915853"></polygon>
                    <path d="M110.950824,104.056354 C110.121361,104.056354 109.427321,104.006699 108.872089,103.907389 C108.316857,103.808079 107.869963,103.641058 107.531407,103.407455 C107.191722,103.173851 106.934419,102.848837 106.759499,102.43467 C106.584578,102.019374 106.466083,101.501384 106.408529,100.881826 C106.349846,100.262268 106.320504,99.5140591 106.320504,98.6371987 L106.320504,91.8502769 L107.828208,91.8502769 L107.828208,99.2330575 C107.828208,99.9699814 107.858678,100.56584 107.917361,101.022891 C107.974915,101.477685 108.10131,101.835426 108.294287,102.0916 C108.486135,102.348902 108.794221,102.524952 109.215159,102.618619 C109.636097,102.712286 110.215028,102.758555 110.950824,102.758555 C111.686619,102.758555 112.263293,102.712286 112.67746,102.618619 C113.092755,102.524952 113.397456,102.348902 113.590433,102.0916 C113.78341,101.835426 113.903033,101.477685 113.949302,101.022891 C113.995572,100.56584 114.020399,99.9699814 114.020399,99.2330575 L114.020399,91.8502769 L115.528102,91.8502769 L115.528102,98.6371987 C115.528102,99.5140591 115.502146,100.262268 115.449106,100.881826 C115.396066,101.501384 115.285471,102.019374 115.115064,102.43467 C114.946914,102.848837 114.691869,103.173851 114.353313,103.407455 C114.013628,103.641058 113.566734,103.808079 113.011502,103.907389 C112.45627,104.006699 111.769001,104.056354 110.950824,104.056354" id="Fill-32" fill="#1D1D1B" mask="url(#mask-2)"></path>
                    <polygon id="Fill-33" fill="#1D1D1B" mask="url(#mask-2)" points="121.720181 103.915853 121.720181 93.1824953 117.91481 93.1824953 117.91481 91.8497127 127.05244 91.8497127 127.05244 93.1824953 123.229013 93.1824953 123.229013 103.915853"></polygon>
                    <path d="M133.684303,104.056354 C133.25208,104.056354 132.778101,104.04394 132.263496,104.02137 C131.748891,103.997671 131.250085,103.968329 130.764821,103.933345 C130.278429,103.898361 129.838306,103.857734 129.439938,103.810336 L129.439938,102.530594 C129.860876,102.565578 130.302127,102.600562 130.764821,102.635547 C131.226386,102.670531 131.676665,102.699872 132.114531,102.723571 C132.553526,102.74727 132.92368,102.758555 133.228381,102.758555 C133.847939,102.758555 134.345616,102.732599 134.718028,102.679559 C135.092697,102.626518 135.407554,102.524952 135.665985,102.372601 C135.842034,102.267649 135.969557,102.127712 136.051939,101.951663 C136.133192,101.775614 136.183976,101.571352 136.200904,101.337748 C136.21896,101.104144 136.227988,100.852484 136.227988,100.583896 C136.227988,100.186657 136.214446,99.865029 136.193004,99.6190115 C136.168177,99.3741226 136.106108,99.1834026 136.007927,99.0491087 C135.908617,98.9148148 135.747239,98.815505 135.52492,98.7511793 C135.304859,98.6868536 135.004672,98.6371987 134.63226,98.6022146 L131.632653,98.2693011 C131.071778,98.1982043 130.621499,98.0785811 130.281814,97.9093031 C129.943258,97.740025 129.688212,97.5233491 129.520063,97.2604038 C129.349656,96.9974586 129.235676,96.6814729 129.178121,96.3135752 C129.11831,95.9456775 129.090097,95.5326391 129.090097,95.0767168 C129.090097,94.3409215 129.186021,93.7495768 129.380126,93.3060683 C129.571975,92.8614312 129.855233,92.5217466 130.228774,92.2881429 C130.604571,92.0545391 131.057108,91.8999318 131.589769,91.8231924 C132.120174,91.7475816 132.731832,91.7103404 133.422486,91.7103404 C133.864866,91.7103404 134.320789,91.7216256 134.789125,91.744196 C135.256332,91.7678949 135.698712,91.800622 136.112879,91.8412488 C136.528175,91.8818755 136.868988,91.9315304 137.138704,91.9902135 L137.138704,93.2349715 C136.834004,93.1887022 136.483034,93.1469469 136.086923,93.1130913 C135.689684,93.0769786 135.282288,93.0510227 134.868121,93.0329663 C134.453954,93.0160385 134.058972,93.0070104 133.684303,93.0070104 C133.041047,93.0070104 132.520799,93.0363519 132.123559,93.095035 C131.72632,93.153718 131.410335,93.2586704 131.176731,93.4110207 C130.919428,93.5633709 130.75805,93.7766613 130.694853,94.0508918 C130.630527,94.3251222 130.598928,94.6557787 130.598928,95.0417327 C130.598928,95.4976549 130.630527,95.8508818 130.694853,96.1025419 C130.75805,96.3542019 130.899115,96.5302511 131.115791,96.6284324 C131.331338,96.7277422 131.656352,96.801096 132.088575,96.8484939 L135.018214,97.1814074 C135.439152,97.2163915 135.809307,97.271689 136.130935,97.3484284 C136.452564,97.4240393 136.73018,97.5493051 136.963784,97.7253542 C137.197387,97.9002749 137.374565,98.151935 137.490803,98.4792059 C137.559642,98.6428413 137.611554,98.8245331 137.647667,99.0231527 C137.682651,99.2217723 137.708607,99.4407053 137.726663,99.6810801 C137.74472,99.9203265 137.752619,100.186657 137.752619,100.478944 C137.752619,101.144771 137.689422,101.697746 137.559642,102.135612 C137.430991,102.574606 137.250428,102.922191 137.016824,103.179493 C136.78322,103.436796 136.496576,103.629773 136.156891,103.758424 C135.818335,103.887076 135.441409,103.968329 135.026114,104.003313 C134.60969,104.038297 134.162796,104.056354 133.684303,104.056354" id="Fill-34" fill="#1D1D1B" mask="url(#mask-2)"></path>
                    <path d="M145.153569,104.056354 C144.312821,104.056354 143.605239,104.006699 143.031951,103.907389 C142.458662,103.808079 141.991455,103.633159 141.6292,103.38037 C141.266945,103.129839 140.989329,102.773226 140.796352,102.311661 C140.603375,101.848968 140.472466,101.256495 140.40137,100.530856 C140.331401,99.8063459 140.295289,98.9238429 140.295289,97.8833471 C140.295289,96.8417228 140.331401,95.9626053 140.40137,95.2437378 C140.472466,94.5248703 140.603375,93.9346542 140.796352,93.4719608 C140.989329,93.0103959 141.266945,92.6515264 141.6292,92.3942238 C141.991455,92.1357926 142.458662,91.9586149 143.031951,91.8581766 C143.605239,91.7599953 144.312821,91.7103404 145.153569,91.7103404 C145.48084,91.7103404 145.817139,91.7216256 146.162466,91.744196 C146.506665,91.7678949 146.837322,91.7972365 147.153307,91.8322206 C147.469293,91.8672047 147.743523,91.9146026 147.978256,91.9721571 L147.978256,93.1830596 C147.708539,93.1469469 147.430923,93.1153483 147.145408,93.0860068 C146.858763,93.0566653 146.574376,93.0363519 146.294503,93.0250667 C146.013502,93.0137815 145.761842,93.0070104 145.540652,93.0070104 C144.861282,93.0070104 144.294765,93.0363519 143.838843,93.095035 C143.382921,93.153718 143.019537,93.2676986 142.750949,93.4369766 C142.482361,93.6062547 142.280356,93.8703285 142.146062,94.2269409 C142.011768,94.5824249 141.921487,95.0564035 141.875217,95.6466196 C141.827819,96.2368358 141.80412,96.9827878 141.80412,97.8833471 C141.80412,98.7839064 141.827819,99.5287299 141.875217,100.118946 C141.921487,100.709162 142.011768,101.183141 142.146062,101.539753 C142.280356,101.896366 142.482361,102.159311 142.750949,102.328589 C143.019537,102.497867 143.382921,102.611848 143.838843,102.670531 C144.294765,102.729214 144.861282,102.758555 145.540652,102.758555 C145.936762,102.758555 146.370114,102.740499 146.837322,102.705515 C147.304529,102.670531 147.708539,102.629904 148.047095,102.582506 L148.047095,103.828393 C147.802206,103.874662 147.513305,103.913032 147.179263,103.942373 C146.84635,103.970586 146.504408,103.997671 146.154567,104.02137 C145.802468,104.04394 145.469555,104.056354 145.153569,104.056354" id="Fill-35" fill="#1D1D1B" mask="url(#mask-2)"></path>
                    <polygon id="Fill-36" fill="#1D1D1B" mask="url(#mask-2)" points="150.73004 103.915853 150.73004 91.8497127 152.238872 91.8497127 152.238872 97.1639153 158.552943 97.1639153 158.552943 91.8497127 160.060647 91.8497127 160.060647 103.915853 158.552943 103.915853 158.552943 98.4966979 152.238872 98.4966979 152.238872 103.915853"></polygon>
                    <polygon id="Fill-37" fill="#1D1D1B" mask="url(#mask-2)" points="163.283701 103.915853 163.283701 91.8497127 164.792533 91.8497127 164.792533 102.58307 170.421593 102.58307 170.421593 103.915853"></polygon>
                    <path d="M175.486957,99.3037029 L179.993139,99.3037029 L177.783496,93.3936415 L177.6966,93.3936415 L175.486957,99.3037029 Z M172.260517,103.915966 L176.819739,91.8498255 L178.713396,91.8498255 L183.255691,103.915966 L181.694947,103.915966 L180.449061,100.619558 L175.031034,100.619558 L173.785148,103.915966 L172.260517,103.915966 Z" id="Fill-38" fill="#1D1D1B" mask="url(#mask-2)"></path>
                    <polygon id="Fill-39" fill="#1D1D1B" mask="url(#mask-2)" points="185.703113 103.915853 185.703113 91.8497127 187.246929 91.8497127 193.507961 101.092295 193.577929 101.092295 193.577929 91.8497127 195.03372 91.8497127 195.03372 103.915853 193.577929 103.915853 187.230001 94.4983501 187.158905 94.4983501 187.158905 103.915853"></polygon>
                    <path d="M199.765606,102.618167 L201.835313,102.618167 C202.571108,102.618167 203.179381,102.600111 203.659002,102.565127 C204.138623,102.530143 204.517806,102.439861 204.798807,102.293153 C205.079809,102.147574 205.284071,101.908328 205.412722,101.574286 C205.541374,101.241372 205.624884,100.776422 205.66664,100.180563 C205.708395,99.5847045 205.72758,98.8184391 205.72758,97.8828957 C205.72758,96.9473523 205.708395,96.1844725 205.66664,95.5942563 C205.624884,95.0040401 205.537988,94.5390897 205.403694,94.2005336 C205.2694,93.8608489 205.061753,93.618217 204.780751,93.4726379 C204.500878,93.3259302 204.122824,93.2356486 203.649974,93.2006645 C203.175995,93.1656803 202.571108,93.147624 201.835313,93.147624 L199.765606,93.147624 L199.765606,102.618167 Z M198.256775,103.915966 L198.256775,91.8498255 L202.080202,91.8498255 C203.074428,91.8498255 203.886963,91.8972234 204.517806,91.9908906 C205.149777,92.0845578 205.649712,92.2527073 206.017609,92.4987248 C206.385507,92.7436137 206.657481,93.0957121 206.83353,93.5505058 C207.00845,94.0075566 207.120174,94.585359 207.166443,95.2872987 C207.213841,95.9881099 207.236411,96.8548136 207.236411,97.8828957 C207.236411,98.9121063 207.213841,99.776553 207.166443,100.478493 C207.120174,101.180432 207.00845,101.758235 206.83353,102.215286 C206.657481,102.670079 206.385507,103.021049 206.017609,103.267067 C205.649712,103.511956 205.149777,103.682362 204.517806,103.774901 C203.886963,103.868568 203.074428,103.915966 202.080202,103.915966 L198.256775,103.915966 Z" id="Fill-40" fill="#1D1D1B" mask="url(#mask-2)"></path>
                    <path d="M43.9823906,49.3011073 L43.9823906,61.9710061 L33.0097865,55.6354924 L22.0699096,61.9518212 L22.0699096,49.2965932 L11.150346,42.9926782 L22.0699096,36.6876346 L22.0699096,24.0053221 L33.0097865,30.3216509 L43.9823906,23.9872658 L43.9823906,36.6503934 L54.9380668,42.9757504 L43.9823906,49.3011073 Z M66.0528644,23.9082693 L55.0170632,17.5366431 L44.0455877,23.8721567 L44.0455877,11.2079005 L33.0097865,4.83740278 L21.9751139,11.2079005 L21.9751139,23.890213 L11.0352369,17.5750128 L-0.00056426021,23.9455105 L-0.00056426021,36.6876346 L10.9201278,42.9926782 L-0.00056426021,49.2965932 L-0.00056426021,62.0387173 L11.0352369,68.4103436 L21.9751139,62.0940148 L21.9751139,74.7492428 L33.0097865,81.1197405 L44.0455877,74.7492428 L44.0455877,62.079344 L55.0170632,68.4148576 L66.0528644,62.0432314 L66.0528644,49.3011073 L55.0971882,42.9757504 L66.0528644,36.6503934 L66.0528644,23.9082693 Z" id="Fill-41" fill="#E56843" mask="url(#mask-2)"></path>
                </g>
            </g>
        </g>
    </g>
</svg>