<?xml version="1.0" encoding="UTF-8"?>
<svg width="250px" height="105px" viewBox="0 0 250 105" version="1.1" xmlns="http://www.w3.org/2000/svg" xmlns:xlink="http://www.w3.org/1999/xlink">
    <title>F6DCE411-EB46-425D-B0D8-FEDDFB3DFB4A</title>
    <defs>
        <polygon id="path-1" points="0 104.056824 250 104.056824 250 0 0 0"></polygon>
    </defs>
    <g id="Screendesign" stroke="none" stroke-width="1" fill="none" fill-rule="evenodd">
        <g id="00---Home---Desktop" transform="translate(-340.000000, -48.000000)">
            <g id="sfn-logo-negative" transform="translate(340.000000, 48.000000)">
                <path d="M90.009615,23.2271993 C89.3482991,23.2271993 88.6226572,23.2102714 87.8326893,23.1752871 C87.0415929,23.1403028 86.2730671,23.0929047 85.5259832,23.0319644 C84.7788993,22.971024 84.0916272,22.906698 83.4664241,22.8367294 L83.4664241,19.8912779 C84.1085551,19.94319 84.7664855,19.9951022 85.4334441,20.0481429 C86.1037882,20.1000551 86.7414051,20.1384249 87.3519375,20.164381 C87.9590842,20.1914656 88.480463,20.2038794 88.9138168,20.2038794 C89.8008378,20.2038794 90.4881099,20.164381 90.9733758,20.0865128 C91.4597703,20.007516 91.8254126,19.8912779 92.0680456,19.7344128 C92.2598949,19.5956042 92.3896753,19.4432532 92.4607725,19.2784885 C92.528484,19.1125952 92.5724965,18.9139748 92.5905529,18.6792415 C92.6086093,18.4445081 92.6176375,18.1793046 92.6176375,17.883631 C92.6176375,17.4841329 92.595067,17.153475 92.5510545,16.8927856 C92.5081705,16.6320962 92.4336878,16.4289616 92.330992,16.2811247 C92.2249106,16.1332879 92.0556318,16.0238209 91.8208985,15.9549809 C91.5861652,15.8850123 91.2871059,15.8331001 90.9225922,15.7981158 L86.9072984,15.3038216 C86.1083023,15.1988688 85.4515005,15.0160476 84.9391499,14.7553582 C84.4267993,14.4946688 84.0227872,14.147083 83.728242,13.7126007 C83.4314398,13.2792469 83.2271767,12.7646392 83.1154527,12.1744204 C83.0003431,11.5842015 82.9450453,10.9149859 82.9450453,10.167902 C82.9450453,8.98520729 83.1109386,8.04740259 83.440468,7.35223087 C83.7699975,6.65593063 84.23495,6.12665216 84.834197,5.76100989 C85.4334441,5.39649615 86.1421581,5.15724875 86.9592106,5.04552472 C87.776263,4.93154364 88.6632841,4.87511737 89.6180167,4.87511737 C90.3143169,4.87511737 91.025288,4.89768788 91.7565725,4.94057185 C92.4856,4.98345582 93.1728721,5.04101062 93.8161316,5.10985067 C94.4582626,5.17981926 94.9976978,5.26671572 95.4321801,5.37054007 L95.4321801,8.2381234 C94.9976978,8.16815482 94.4932469,8.10834296 93.9199559,8.05643079 C93.346665,8.00339009 92.7474179,7.96502022 92.1210863,7.93793561 C91.4947546,7.91310805 90.9045358,7.89956574 90.3493012,7.89956574 C89.5311202,7.89956574 88.8844751,7.92890741 88.4071088,7.98984778 C87.928614,8.05191669 87.5584576,8.15122693 87.2988968,8.29003557 C87.0032231,8.4638285 86.824916,8.6895336 86.7639757,8.9682794 C86.7030353,9.24589668 86.6725651,9.59348254 86.6725651,10.011037 C86.6725651,10.5324158 86.7075494,10.9285282 86.777518,11.1971173 C86.846358,11.4668349 87.0122513,11.6530416 87.2718121,11.7579945 C87.5336301,11.8618188 87.9410278,11.9487153 88.4973908,12.0175553 L92.5126846,12.487022 C92.9979506,12.5389341 93.4504893,12.6258306 93.8680438,12.7477114 C94.2855982,12.8695921 94.6580116,13.0603129 94.9886696,13.3221308 C95.3193276,13.5816917 95.5879167,13.947334 95.7978224,14.4156721 C95.9185746,14.6594336 96.0133708,14.9415649 96.0844679,15.2631947 C96.1521794,15.585953 96.2097342,15.9459527 96.2537467,16.3454507 C96.2955021,16.7460772 96.3180727,17.1884592 96.3180727,17.6748537 C96.3180727,18.6837556 96.2187624,19.5267641 96.0178849,20.2038794 C95.8181359,20.8821233 95.5360045,21.4204299 95.1714907,21.819928 C94.8058485,22.219426 94.3589524,22.5241279 93.8296739,22.7329051 C93.2981384,22.9405538 92.7124336,23.0748483 92.0680456,23.1369172 C91.4259146,23.1978576 90.7386425,23.2271993 90.009615,23.2271993" id="Fill-1" fill="#FFFFFF"></path>
                <path d="M106.779956,23.2271993 C105.458452,23.2271993 104.355883,23.1403028 103.468862,22.9676384 C102.581841,22.7927169 101.861841,22.4981718 101.305478,22.0806173 C100.747987,21.6630629 100.327047,21.1078284 100.040401,20.4126566 C99.7537557,19.7174849 99.5585208,18.8485203 99.4546965,17.8046342 C99.3508721,16.7618766 99.2978314,15.5114703 99.2978314,14.0511583 C99.2978314,12.5908463 99.3508721,11.34044 99.4546965,10.2976825 C99.5585208,9.25492489 99.7537557,8.38596024 100.040401,7.68966 C100.327047,6.99561681 100.747987,6.43925373 101.305478,6.02282781 C101.861841,5.60527337 102.581841,5.30959969 103.468862,5.13580676 C104.355883,4.96201383 105.458452,4.87511737 106.779956,4.87511737 C107.283278,4.87511737 107.809171,4.89317377 108.356506,4.92702954 C108.903841,4.96201383 109.430862,5.013926 109.934184,5.08389459 C110.437507,5.15273464 110.862961,5.23173143 111.211675,5.31862789 L111.211675,8.15912661 C110.742209,8.10834296 110.28967,8.06094489 109.856316,8.01580387 C109.421834,7.9729199 109.016693,7.94244971 108.643151,7.9243933 C108.269609,7.90859395 107.953622,7.89956574 107.692933,7.89956574 C106.804783,7.89956574 106.075756,7.93342151 105.502465,8.00339009 C104.929174,8.07223015 104.473249,8.21668141 104.133563,8.43448684 C103.793877,8.65116374 103.547859,8.98069319 103.390993,9.42420371 C103.234128,9.86771424 103.131433,10.4624472 103.078392,11.2106596 C103.025351,11.9577435 102.999395,12.9045764 102.999395,14.0511583 C102.999395,15.1808124 103.025351,16.1242597 103.078392,16.8803718 C103.131433,17.6364839 103.234128,18.2357309 103.390993,18.6792415 C103.547859,19.1216235 103.793877,19.4522814 104.133563,19.6700869 C104.473249,19.8867637 104.929174,20.0300865 105.502465,20.1000551 C106.075756,20.1688951 106.804783,20.2038794 107.692933,20.2038794 C108.265095,20.2038794 108.891427,20.1779233 109.569671,20.1260112 C110.246786,20.0729705 110.829105,20.0120301 111.316628,19.94319 L111.316628,22.8367294 C110.934058,22.906698 110.481519,22.971024 109.959012,23.0319644 C109.438762,23.0929047 108.903841,23.1403028 108.356506,23.1752871 C107.809171,23.2102714 107.283278,23.2271993 106.779956,23.2271993" id="Fill-3" fill="#FFFFFF"></path>
                <polygon id="Fill-5" fill="#FFFFFF" points="114.501101 23.0188735 114.501101 5.08321747 118.202665 5.08321747 118.202665 12.4096051 125.346232 12.4096051 125.346232 5.08321747 129.047795 5.08321747 129.047795 23.0188735 125.346232 23.0188735 125.346232 15.58979 118.202665 15.58979 118.202665 23.0188735"></polygon>
                <mask id="mask-2" fill="white">
                    <use xlink:href="#path-1"></use>
                </mask>
                <g id="Clip-8"></g>
                <path d="M141.212398,2.60802246 L144.156721,2.60802246 L144.156721,-1.60373121e-14 L141.212398,-1.60373121e-14 L141.212398,2.60802246 Z M135.815789,2.60802246 L138.760112,2.60802246 L138.760112,-1.60373121e-14 L135.815789,-1.60373121e-14 L135.815789,2.60802246 Z M139.986819,23.2273121 C138.717228,23.2273121 137.656414,23.1494439 136.805505,22.9937073 C135.955726,22.8368423 135.267325,22.5851811 134.747075,22.2375952 C134.224568,21.8888809 133.830712,21.4036149 133.560995,20.7772832 C133.290148,20.1509516 133.107327,19.3654978 133.012531,18.4175364 C132.917735,17.4707035 132.869208,16.3365353 132.869208,15.015032 L132.869208,5.08400744 L136.571901,5.08400744 L136.571901,15.9550937 C136.571901,16.8759705 136.601242,17.6185403 136.662183,18.1828031 C136.724252,18.7481944 136.854032,19.1781626 137.052652,19.4738363 C137.25353,19.7695099 137.588702,19.9647449 138.058169,20.059541 C138.527635,20.1554657 139.168638,20.2039923 139.986819,20.2039923 C140.801614,20.2039923 141.441488,20.1554657 141.901927,20.059541 C142.362365,19.9647449 142.697537,19.7695099 142.907443,19.4738363 C143.113963,19.1781626 143.243743,18.7481944 143.296784,18.1828031 C143.349825,17.6185403 143.374652,16.8759705 143.374652,15.9550937 L143.374652,5.08400744 L147.077345,5.08400744 L147.077345,15.015032 C147.077345,16.3365353 147.028818,17.4707035 146.934022,18.4175364 C146.836969,19.3654978 146.660919,20.1509516 146.397972,20.7772832 C146.138411,21.4036149 145.747942,21.8888809 145.225434,22.2375952 C144.705184,22.5851811 144.017912,22.8368423 143.167004,22.9937073 C142.313838,23.1494439 141.254153,23.2273121 139.986819,23.2273121 L139.986819,23.2273121 Z" id="Fill-7" fill="#FFFFFF" mask="url(#mask-2)"></path>
                <polygon id="Fill-9" fill="#FFFFFF" mask="url(#mask-2)" points="150.912526 23.0188735 150.912526 5.08321747 154.612961 5.08321747 154.612961 19.8917293 162.121041 19.8917293 162.121041 23.0188735"></polygon>
                <polygon id="Fill-10" fill="#FFFFFF" mask="url(#mask-2)" points="165.025753 23.0188735 165.025753 5.08321747 177.275897 5.08321747 177.275897 8.10766585 168.726188 8.10766585 168.726188 12.4615173 176.051447 12.4615173 176.051447 15.4848371 168.726188 15.4848371 168.726188 19.9944251 177.275897 19.9944251 177.275897 23.0188735"></polygon>
                <path d="M184.265759,13.4516856 L187.655849,13.4516856 C188.384877,13.4516856 188.958168,13.4088016 189.374594,13.3219051 C189.79102,13.2350087 190.10475,13.0916859 190.313527,12.8919369 C190.523433,12.6910594 190.653213,12.4224703 190.703997,12.0827841 C190.757037,11.7442265 190.782994,11.3063586 190.782994,10.7669234 C190.782994,10.2286167 190.757037,9.78510617 190.703997,9.43639179 C190.653213,9.08993446 190.530204,8.82021686 190.340612,8.62949605 C190.148762,8.43877523 189.839546,8.2999666 189.414092,8.21194161 C188.989767,8.12504514 188.411961,8.08103265 187.679548,8.08103265 L184.265759,8.08103265 L184.265759,13.4516856 Z M180.565324,23.0193249 L180.565324,5.08366888 L189.140989,5.08366888 C190.305627,5.08366888 191.240046,5.21344932 191.943118,5.47526723 C192.646189,5.7348281 193.18111,6.11288415 193.547881,6.60943538 C193.911266,7.10372955 194.158413,7.7029766 194.290451,8.40717652 C194.420231,9.11137644 194.484557,9.89795872 194.484557,10.7669234 C194.484557,11.3751986 194.433774,12.0263578 194.327692,12.7226581 C194.223868,13.4178298 193.99252,14.0599608 193.638163,14.6501797 C193.280421,15.241527 192.720672,15.6771379 191.955532,15.9547552 L194.823115,23.0193249 L190.913903,23.0193249 L188.202056,15.8249747 L189.115033,16.3192689 C188.993152,16.3711811 188.849829,16.4061654 188.685065,16.4242218 C188.5203,16.4411497 188.332965,16.4490493 188.123059,16.4490493 L184.265759,16.4490493 L184.265759,23.0193249 L180.565324,23.0193249 Z" id="Fill-11" fill="#FFFFFF" mask="url(#mask-2)"></path>
                <polygon id="Fill-12" fill="#FFFFFF" mask="url(#mask-2)" points="83.7013831 51.949415 83.7013831 34.013759 95.4324058 34.013759 95.4324058 37.0382074 87.4018183 37.0382074 87.4018183 41.8874815 94.4675165 41.8874815 94.4675165 44.9119299 87.4018183 44.9119299 87.4018183 51.949415"></polygon>
                <path d="M105.632697,49.1347595 C106.397837,49.1347595 107.019654,49.1088034 107.497021,49.0568912 C107.974387,49.0038505 108.352443,48.8819698 108.63006,48.6901204 C108.907678,48.5005281 109.113069,48.1867981 109.24285,47.7523157 C109.37263,47.3189619 109.456141,46.7185864 109.491125,45.9545746 C109.524981,45.1894343 109.543037,44.1985889 109.543037,42.9820384 C109.543037,41.7654879 109.524981,40.775771 109.491125,40.0106307 C109.456141,39.2454904 109.37263,38.6462434 109.24285,38.2106325 C109.113069,37.7772787 108.907678,37.4646772 108.63006,37.2728278 C108.352443,37.0809785 107.974387,36.9602262 107.497021,36.9083141 C107.019654,36.8552734 106.397837,36.8304458 105.632697,36.8304458 C104.885613,36.8304458 104.272823,36.8552734 103.794328,36.9083141 C103.315834,36.9602262 102.938906,37.0809785 102.661289,37.2728278 C102.382543,37.4646772 102.17828,37.7772787 102.0485,38.2106325 C101.918719,38.6462434 101.835208,39.2454904 101.800224,40.0106307 C101.76524,40.775771 101.74944,41.7654879 101.74944,42.9820384 C101.74944,44.1985889 101.76524,45.1894343 101.800224,45.9545746 C101.835208,46.7185864 101.918719,47.3189619 102.0485,47.7523157 C102.17828,48.1867981 102.382543,48.5005281 102.661289,48.6901204 C102.938906,48.8819698 103.315834,49.0038505 103.794328,49.0568912 C104.272823,49.1088034 104.885613,49.1347595 105.632697,49.1347595 M105.632697,52.1580793 C104.173513,52.1580793 102.969376,52.0711829 102.022543,51.8973899 C101.074582,51.723597 100.332012,51.4324374 99.7937055,51.0250397 C99.2542703,50.615385 98.8638005,50.0590219 98.620039,49.3559505 C98.3762775,48.6517506 98.220541,47.7794003 98.1505724,46.7355142 C98.0817323,45.6927567 98.0456195,44.4423504 98.0456195,42.9820384 C98.0456195,41.5217264 98.0817323,40.2713201 98.1505724,39.2285625 C98.220541,38.185805 98.3762775,37.3111977 98.620039,36.6081263 C98.8638005,35.9039264 99.2542703,35.3475633 99.7937055,34.9401656 C100.332012,34.5316393 101.074582,34.2404798 102.022543,34.0655583 C102.969376,33.8928939 104.173513,33.8059974 105.632697,33.8059974 C107.09188,33.8059974 108.294888,33.8928939 109.24285,34.0655583 C110.190811,34.2404798 110.933381,34.5316393 111.471688,34.9401656 C112.009994,35.3475633 112.406107,35.9039264 112.658896,36.6081263 C112.910558,37.3111977 113.071937,38.185805 113.139648,39.2285625 C113.210745,40.2713201 113.244601,41.5217264 113.244601,42.9820384 C113.244601,44.4423504 113.210745,45.6927567 113.139648,46.7355142 C113.071937,47.7794003 112.910558,48.6517506 112.658896,49.3559505 C112.406107,50.0590219 112.009994,50.615385 111.471688,51.0250397 C110.933381,51.4324374 110.190811,51.723597 109.24285,51.8973899 C108.294888,52.0711829 107.09188,52.1580793 105.632697,52.1580793" id="Fill-13" fill="#FFFFFF" mask="url(#mask-2)"></path>
                <path d="M120.459942,42.3823399 L123.848904,42.3823399 C124.57906,42.3823399 125.152351,42.339456 125.568777,42.2525595 C125.986331,42.165663 126.298933,42.0223403 126.50771,41.8225913 C126.716487,41.6217137 126.847396,41.3531247 126.89818,41.0134385 C126.951221,40.6748808 126.977177,40.2370129 126.977177,39.6975777 C126.977177,39.1592711 126.951221,38.7157605 126.89818,38.3670462 C126.847396,38.0205888 126.725516,37.7508712 126.534795,37.5601504 C126.342945,37.3694296 126.033729,37.230621 125.608275,37.142596 C125.182821,37.0556995 124.605016,37.011687 123.87486,37.011687 L120.459942,37.011687 L120.459942,42.3823399 Z M116.758378,51.9499792 L116.758378,34.0143232 L125.335172,34.0143232 C126.49981,34.0143232 127.43423,34.1441037 128.137301,34.4059216 C128.841501,34.6654825 129.375293,35.0435385 129.740936,35.5400897 C130.105449,36.0343839 130.353725,36.633631 130.483505,37.3378309 C130.614414,38.0420308 130.67874,38.8286131 130.67874,39.6975777 C130.67874,40.305853 130.627957,40.9570122 130.521875,41.6533124 C130.418051,42.3484842 130.187832,42.9906152 129.832346,43.580834 C129.474604,44.1721814 128.914855,44.6077922 128.149715,44.8854095 L131.017298,51.9499792 L127.108086,51.9499792 L124.396239,44.7556291 L125.309216,45.2499233 C125.187335,45.3018354 125.044012,45.3368197 124.879248,45.3548761 C124.714483,45.371804 124.527148,45.3797037 124.318371,45.3797037 L120.459942,45.3797037 L120.459942,51.9499792 L116.758378,51.9499792 Z" id="Fill-14" fill="#FFFFFF" mask="url(#mask-2)"></path>
                <path d="M140.72273,52.1577408 C140.063671,52.1577408 139.335772,52.1408129 138.546933,52.1058286 C137.755837,52.0708443 136.986182,52.0234462 136.239098,51.9625059 C135.492015,51.9015655 134.804743,51.8372395 134.180668,51.767271 L134.180668,48.8218194 C134.82167,48.8737315 135.479601,48.9256437 136.148816,48.9786844 C136.816904,49.0305966 137.455649,49.0689665 138.065053,49.0949225 C138.673328,49.1220072 139.193578,49.1344209 139.629189,49.1344209 C140.515082,49.1344209 141.201225,49.0949225 141.68762,49.0170543 C142.175143,48.9380575 142.538528,48.8218194 142.783418,48.6649543 C142.97301,48.5261457 143.102791,48.3737947 143.173888,48.20903 C143.241599,48.0431368 143.285612,47.8445163 143.303668,47.609783 C143.321725,47.3750497 143.330753,47.1098462 143.330753,46.8141725 C143.330753,46.4146744 143.308182,46.0840165 143.26417,45.8233271 C143.222414,45.5626377 143.146803,45.3595031 143.044107,45.2116662 C142.940283,45.0638294 142.769876,44.9543624 142.534014,44.8855224 C142.300409,44.8155538 142.00135,44.7636416 141.635707,44.7286573 L137.621542,44.2343632 C136.821418,44.1294103 136.164616,43.9465891 135.653394,43.6858998 C135.139915,43.4252104 134.735902,43.0776245 134.441357,42.6431422 C134.145684,42.2097884 133.940292,41.6951807 133.828568,41.1049619 C133.715715,40.5147431 133.658161,39.8455274 133.658161,39.0984435 C133.658161,37.9157488 133.824054,36.9779441 134.154712,36.2827724 C134.483113,35.5864721 134.950322,35.0571937 135.549569,34.6915514 C136.148816,34.3270377 136.856402,34.0877903 137.672326,33.9760662 C138.489378,33.8620852 139.376399,33.8056589 140.33226,33.8056589 C141.027432,33.8056589 141.74066,33.8282294 142.470816,33.8711134 C143.199844,33.9139973 143.885987,33.9715521 144.529247,34.0403922 C145.172506,34.1103608 145.710813,34.1972572 146.145295,34.3010816 L146.145295,37.1686649 C145.710813,37.0986963 145.208619,37.0388845 144.633071,36.9869723 C144.05978,36.9339316 143.460533,36.8955617 142.834202,36.8684771 C142.20787,36.8436496 141.617651,36.8301073 141.062416,36.8301073 C140.244235,36.8301073 139.598719,36.8594489 139.120224,36.9203893 C138.641729,36.9824582 138.27383,37.0817684 138.012012,37.2205771 C137.716338,37.39437 137.538031,37.6200751 137.478219,37.8988209 C137.416151,38.1764382 137.38568,38.5240241 137.38568,38.9415785 C137.38568,39.4629573 137.420665,39.8590697 137.491762,40.1276588 C137.559473,40.3973764 137.725367,40.5835831 137.984927,40.688536 C138.247874,40.7923603 138.655272,40.8792568 139.210506,40.9480969 L143.226928,41.4175635 C143.711066,41.4694756 144.163605,41.5563721 144.582288,41.6782529 C144.998713,41.8001336 145.371127,41.9908544 145.701785,42.2526723 C146.032443,42.5122332 146.301032,42.8778755 146.510938,43.3462136 C146.63169,43.5899751 146.726486,43.8721065 146.797583,44.1937362 C146.865295,44.5164945 146.922849,44.8764942 146.966862,45.2759922 C147.008617,45.6766188 147.031188,46.1190008 147.031188,46.6053953 C147.031188,47.6142971 146.931878,48.4573056 146.731,49.1344209 C146.53238,49.8126648 146.250248,50.3509714 145.884606,50.7504695 C145.518964,51.1499675 145.072068,51.4546694 144.542789,51.6634466 C144.011254,51.8710953 143.425549,52.0053898 142.783418,52.0674587 C142.140158,52.1283991 141.451758,52.1577408 140.72273,52.1577408" id="Fill-15" fill="#FFFFFF" mask="url(#mask-2)"></path>
                <path d="M157.491942,52.1577408 C156.171567,52.1577408 155.070127,52.0708443 154.180848,51.8981799 C153.294956,51.7232585 152.574957,51.4287133 152.018594,51.0111589 C151.461102,50.5936044 151.040162,50.0383699 150.753516,49.3431982 C150.466871,48.6480264 150.271636,47.7790618 150.167812,46.7351757 C150.063987,45.6924181 150.010947,44.4420118 150.010947,42.9816998 C150.010947,41.5213878 150.063987,40.2709815 150.167812,39.228224 C150.271636,38.1854664 150.466871,37.3165018 150.753516,36.6202015 C151.040162,35.9261583 151.461102,35.3697952 152.018594,34.9533693 C152.574957,34.5358149 153.294956,34.2401412 154.180848,34.0663483 C155.070127,33.8925553 156.171567,33.8056589 157.491942,33.8056589 C157.996393,33.8056589 158.523415,33.8237153 159.069621,33.8575711 C159.616956,33.8925553 160.143977,33.9444675 160.648428,34.0144361 C161.150622,34.0832762 161.576076,34.1622729 161.924791,34.2491694 L161.924791,37.0896681 C161.455324,37.0388845 161.002785,36.9914864 160.569431,36.9463454 C160.134949,36.9034614 159.730937,36.8729912 159.356266,36.8549348 C158.981596,36.8391355 158.666737,36.8301073 158.404919,36.8301073 C157.517898,36.8301073 156.788871,36.863963 156.21558,36.9339316 C155.642289,37.0027717 155.186365,37.1472229 154.846679,37.3650283 C154.506992,37.5817052 154.260974,37.9112347 154.104109,38.3547452 C153.947244,38.7982558 153.844548,39.3929887 153.791507,40.1412011 C153.738466,40.888285 153.713639,41.8351179 153.713639,42.9816998 C153.713639,44.1113539 153.738466,45.0548012 153.791507,45.8109133 C153.844548,46.5670254 153.947244,47.1662724 154.104109,47.609783 C154.260974,48.052165 154.506992,48.3828229 154.846679,48.6006284 C155.186365,48.8173053 155.642289,48.960628 156.21558,49.0305966 C156.788871,49.0994366 157.517898,49.1344209 158.404919,49.1344209 C158.979339,49.1344209 159.603414,49.1084648 160.282786,49.0565527 C160.958773,49.003512 161.543349,48.9425716 162.028615,48.8737315 L162.028615,51.767271 C161.647173,51.8372395 161.194635,51.9015655 160.672127,51.9625059 C160.151877,52.0234462 159.616956,52.0708443 159.069621,52.1058286 C158.523415,52.1408129 157.996393,52.1577408 157.491942,52.1577408" id="Fill-16" fill="#FFFFFF" mask="url(#mask-2)"></path>
                <polygon id="Fill-17" fill="#FFFFFF" mask="url(#mask-2)" points="165.215232 51.949415 165.215232 34.013759 168.917925 34.013759 168.917925 41.3401466 176.059234 41.3401466 176.059234 34.013759 179.763055 34.013759 179.763055 51.949415 176.059234 51.949415 176.059234 44.5203315 168.917925 44.5203315 168.917925 51.949415"></polygon>
                <path d="M190.699708,52.1577408 C189.430117,52.1577408 188.370432,52.081001 187.519523,51.924136 C186.668615,51.767271 185.980215,51.5156098 185.459964,51.1680239 C184.938586,50.8193095 184.543602,50.3340436 184.275013,49.7077119 C184.003038,49.0813802 183.820217,48.2959265 183.725421,47.347965 C183.630625,46.4011321 183.582098,45.2680925 183.582098,43.9465891 L183.582098,34.0144361 L187.285919,34.0144361 L187.285919,44.8855224 C187.285919,45.8063992 187.314132,46.548969 187.376201,47.1132317 C187.437141,47.678623 187.56805,48.1085912 187.765542,48.4042649 C187.96642,48.7010671 188.301592,48.8951735 188.771058,48.9899697 C189.240525,49.0858943 189.881527,49.1344209 190.699708,49.1344209 C191.515632,49.1344209 192.154378,49.0858943 192.614816,48.9899697 C193.075255,48.8951735 193.410427,48.7010671 193.620332,48.4042649 C193.826853,48.1085912 193.957762,47.678623 194.010802,47.1132317 C194.062714,46.548969 194.087542,45.8063992 194.087542,44.8855224 L194.087542,34.0144361 L197.790234,34.0144361 L197.790234,43.9465891 C197.790234,45.2680925 197.741708,46.4011321 197.646911,47.347965 C197.549858,48.2959265 197.373808,49.0813802 197.11199,49.7077119 C196.851301,50.3340436 196.460831,50.8193095 195.939452,51.1680239 C195.419202,51.5156098 194.730802,51.767271 193.879893,51.924136 C193.027857,52.081001 191.967043,52.1577408 190.699708,52.1577408" id="Fill-18" fill="#FFFFFF" mask="url(#mask-2)"></path>
                <polygon id="Fill-19" fill="#FFFFFF" mask="url(#mask-2)" points="201.625641 51.949415 201.625641 34.013759 205.456985 34.013759 212.520426 45.0665379 212.651335 45.0665379 212.651335 34.013759 216.197162 34.013759 216.197162 51.949415 212.677291 51.949415 205.30012 40.297389 205.17034 40.297389 205.17034 51.949415"></polygon>
                <path d="M227.553063,52.1577408 C226.248488,52.1577408 225.141404,52.0708443 224.229556,51.8981799 C223.316578,51.7232585 222.560466,51.4320989 221.961219,51.0247012 C221.361972,50.6161749 220.89702,50.064326 220.566362,49.3680257 C220.235704,48.6739825 220.006613,47.8005038 219.875704,46.748718 C219.745924,45.6969322 219.679341,44.4420118 219.679341,42.9816998 C219.679341,41.5213878 219.745924,40.2664674 219.875704,39.2146817 C220.006613,38.1640244 220.240218,37.2905457 220.578776,36.5953739 C220.918462,35.9002022 221.387928,35.3472247 221.987175,34.939827 C222.587551,34.5313008 223.339149,34.2401412 224.241969,34.0663483 C225.145918,33.8925553 226.248488,33.8056589 227.553063,33.8056589 C228.126354,33.8056589 228.7651,33.831615 229.468171,33.8846557 C230.171242,33.9365678 230.872057,34.0008938 231.567229,34.0787621 C232.263529,34.1577588 232.904531,34.2581976 233.495879,34.3789498 L233.495879,37.2205771 C232.887603,37.1336806 232.296256,37.0648406 231.722965,37.0117999 C231.150803,36.9598877 230.628295,36.9170037 230.161086,36.8820194 C229.691619,36.8481637 229.298892,36.8301073 228.986291,36.8301073 C227.996574,36.8301073 227.169365,36.8515492 226.510306,36.8955617 C225.84899,36.9384457 225.311812,37.0558124 224.893129,37.2465332 C224.475574,37.4383825 224.158459,37.7509841 223.94291,38.1854664 C223.723976,38.6199487 223.572754,39.2237099 223.485857,39.9978784 C223.397832,40.7709183 223.356077,41.7651493 223.356077,42.9816998 C223.356077,44.0594417 223.385419,44.9633906 223.446359,45.6924181 C223.508428,46.4237026 223.62128,47.0229497 223.786045,47.4912878 C223.951938,47.9607544 224.193443,48.3230111 224.516201,48.5735438 C224.837831,48.8263335 225.254257,48.9956123 225.767736,49.0813802 C226.278958,49.1694052 226.918832,49.2134177 227.682844,49.2134177 C227.960461,49.2134177 228.251621,49.2089036 228.556322,49.1998754 C228.859896,49.1908472 229.146541,49.1773049 229.417387,49.160377 C229.687105,49.1434491 229.907167,49.1253927 230.08096,49.1084648 L230.08096,44.6767452 L227.083597,44.6767452 L227.083597,41.7561211 L233.574875,41.7561211 L233.574875,51.5844498 C232.983528,51.7074591 232.323341,51.8056408 231.593185,51.8846376 C230.864157,51.9625059 230.152058,52.0279603 229.455757,52.081001 C228.760586,52.1329132 228.126354,52.1577408 227.553063,52.1577408" id="Fill-20" fill="#FFFFFF" mask="url(#mask-2)"></path>
                <path d="M243.691881,52.1577408 C243.032822,52.1577408 242.304923,52.1408129 241.516084,52.1058286 C240.724987,52.0708443 239.955333,52.0234462 239.208249,51.9625059 C238.461165,51.9015655 237.773893,51.8372395 237.149819,51.767271 L237.149819,48.8218194 C237.790821,48.8737315 238.448751,48.9256437 239.117967,48.9786844 C239.786054,49.0305966 240.4248,49.0689665 241.034203,49.0949225 C241.642479,49.1220072 242.162729,49.1344209 242.59834,49.1344209 C243.484232,49.1344209 244.170376,49.0949225 244.65677,49.0170543 C245.144293,48.9380575 245.507678,48.8218194 245.752569,48.6649543 C245.942161,48.5261457 246.071941,48.3737947 246.143038,48.20903 C246.21075,48.0431368 246.254762,47.8445163 246.272819,47.609783 C246.290875,47.3750497 246.299903,47.1098462 246.299903,46.8141725 C246.299903,46.4146744 246.277333,46.0840165 246.23332,45.8233271 C246.191565,45.5626377 246.115954,45.3595031 246.013258,45.2116662 C245.909434,45.0638294 245.739026,44.9543624 245.503164,44.8855224 C245.26956,44.8155538 244.9705,44.7636416 244.604858,44.7286573 L240.590693,44.2343632 C239.790568,44.1294103 239.133766,43.9465891 238.622544,43.6858998 C238.109065,43.4252104 237.705053,43.0776245 237.410508,42.6431422 C237.114834,42.2097884 236.909443,41.6951807 236.797719,41.1049619 C236.684866,40.5147431 236.627311,39.8455274 236.627311,39.0984435 C236.627311,37.9157488 236.793204,36.9779441 237.123862,36.2827724 C237.452263,35.5864721 237.919473,35.0571937 238.51872,34.6915514 C239.117967,34.3270377 239.825553,34.0877903 240.641476,33.9760662 C241.458529,33.8620852 242.34555,33.8056589 243.301411,33.8056589 C243.996583,33.8056589 244.709811,33.8282294 245.439967,33.8711134 C246.168994,33.9139973 246.855138,33.9715521 247.498397,34.0403922 C248.141657,34.1103608 248.679964,34.1972572 249.114446,34.3010816 L249.114446,37.1686649 C248.679964,37.0986963 248.17777,37.0388845 247.602222,36.9869723 C247.028931,36.9339316 246.429684,36.8955617 245.803352,36.8684771 C245.177021,36.8436496 244.586802,36.8301073 244.031567,36.8301073 C243.213386,36.8301073 242.56787,36.8594489 242.089375,36.9203893 C241.61088,36.9824582 241.242981,37.0817684 240.981163,37.2205771 C240.685489,37.39437 240.507182,37.6200751 240.44737,37.8988209 C240.385301,38.1764382 240.354831,38.5240241 240.354831,38.9415785 C240.354831,39.4629573 240.389815,39.8590697 240.460912,40.1276588 C240.528624,40.3973764 240.694517,40.5835831 240.954078,40.688536 C241.217024,40.7923603 241.624422,40.8792568 242.179657,40.9480969 L246.196079,41.4175635 C246.680216,41.4694756 247.132755,41.5563721 247.551438,41.6782529 C247.967864,41.8001336 248.340278,41.9908544 248.670936,42.2526723 C249.001593,42.5122332 249.270183,42.8778755 249.480088,43.3462136 C249.600841,43.5899751 249.695637,43.8721065 249.766734,44.1937362 C249.834445,44.5164945 249.892,44.8764942 249.936013,45.2759922 C249.977768,45.6766188 250.000339,46.1190008 250.000339,46.6053953 C250.000339,47.6142971 249.901028,48.4573056 249.700151,49.1344209 C249.50153,49.8126648 249.219399,50.3509714 248.853757,50.7504695 C248.488114,51.1499675 248.041218,51.4546694 247.51194,51.6634466 C246.980404,51.8710953 246.3947,52.0053898 245.752569,52.0674587 C245.109309,52.1283991 244.420908,52.1577408 243.691881,52.1577408" id="Fill-21" fill="#FFFFFF" mask="url(#mask-2)"></path>
                <polygon id="Fill-22" fill="#FFFFFF" mask="url(#mask-2)" points="83.7013831 80.8800693 83.7013831 62.9444133 87.5338558 62.9444133 94.597297 73.9971922 94.7282059 73.9971922 94.7282059 62.9444133 98.2729046 62.9444133 98.2729046 80.8800693 94.754162 80.8800693 87.3769907 69.2269149 87.2460818 69.2269149 87.2460818 80.8800693"></polygon>
                <polygon id="Fill-23" fill="#FFFFFF" mask="url(#mask-2)" points="102.207396 80.8800693 102.207396 62.9444133 114.458669 62.9444133 114.458669 65.9677332 105.907831 65.9677332 105.907831 70.3227132 113.234219 70.3227132 113.234219 73.346033 105.907831 73.346033 105.907831 77.855621 114.458669 77.855621 114.458669 80.8800693"></polygon>
                <polygon id="Fill-24" fill="#FFFFFF" mask="url(#mask-2)" points="122.154987 80.8800693 122.154987 66.0726861 116.966027 66.0726861 116.966027 62.9444133 131.044383 62.9444133 131.044383 66.0726861 125.856551 66.0726861 125.856551 80.8800693"></polygon>
                <polygon id="Fill-25" fill="#FFFFFF" mask="url(#mask-2)" points="133.301321 80.8800693 133.301321 77.9865299 142.086892 65.9677332 133.587966 65.9677332 133.587966 62.9444133 146.753345 62.9444133 146.753345 65.7341284 137.863949 77.881577 146.830085 77.881577 146.830085 80.8800693"></polygon>
                <polygon id="Fill-26" fill="#FFFFFF" mask="url(#mask-2)" points="153.511294 80.8800693 149.18227 62.9444133 152.884963 62.9444133 156.039191 76.5781301 156.168972 76.5781301 159.636931 62.9444133 163.494231 62.9444133 167.014102 76.5781301 167.143882 76.5781301 170.090463 62.9444133 173.792026 62.9444133 169.438175 80.8800693 164.824763 80.8800693 161.538496 68.3410224 161.408716 68.3410224 158.124707 80.8800693"></polygon>
                <polygon id="Fill-27" fill="#FFFFFF" mask="url(#mask-2)" points="176.657014 80.8800693 176.657014 62.9444133 188.909416 62.9444133 188.909416 65.9677332 180.359706 65.9677332 180.359706 70.3227132 187.683837 70.3227132 187.683837 73.346033 180.359706 73.346033 180.359706 77.855621 188.909416 77.855621 188.909416 80.8800693"></polygon>
                <path d="M195.899277,71.3128814 L199.28711,71.3128814 C200.016138,71.3128814 200.589429,71.2688689 201.008112,71.1819725 C201.424538,71.0962045 201.738268,70.9517533 201.944788,70.7520043 C202.154694,70.5522552 202.284474,70.2825376 202.337515,69.94398 C202.390556,69.6042938 202.414255,69.1664259 202.414255,68.6269907 C202.414255,68.0898126 202.390556,67.6451735 202.337515,67.2975877 C202.284474,66.9511303 202.163722,66.6814127 201.971873,66.4906919 C201.780023,66.2988426 201.473064,66.1600339 201.046482,66.072009 C200.621028,65.9851125 200.043223,65.9422285 199.313067,65.9422285 L195.899277,65.9422285 L195.899277,71.3128814 Z M192.196585,80.8805207 L192.196585,62.9448648 L200.77225,62.9448648 C201.936888,62.9448648 202.871307,63.0746452 203.576636,63.3353346 C204.279707,63.596024 204.812371,63.97408 205.179142,64.4695027 C205.544784,64.9649254 205.791931,65.5641725 205.921712,66.2672439 C206.051492,66.9714438 206.118075,67.7591546 206.118075,68.6269907 C206.118075,69.235266 206.065035,69.8875537 205.96121,70.5827254 C205.857386,71.2778972 205.626038,71.9211567 205.269424,72.5113755 C204.913939,73.1027229 204.351933,73.5372052 203.58905,73.8148225 L206.456633,80.8805207 L202.545164,80.8805207 L199.833317,73.6850421 L200.746294,74.1804648 C200.624413,74.2323769 200.482219,74.2673612 200.316326,74.2842891 C200.151561,74.301217 199.966483,74.3102452 199.756577,74.3102452 L195.899277,74.3102452 L195.899277,80.8805207 L192.196585,80.8805207 Z" id="Fill-28" fill="#FFFFFF" mask="url(#mask-2)"></path>
                <polygon id="Fill-29" fill="#FFFFFF" mask="url(#mask-2)" points="209.628918 80.8800693 209.628918 62.9444133 213.329353 62.9444133 213.329353 70.2437164 215.232047 70.2437164 220.680569 62.9444133 224.722947 62.9444133 218.205712 71.5212073 224.799687 80.8800693 220.550788 80.8800693 215.232047 73.2681647 213.329353 73.2681647 213.329353 80.8800693"></polygon>
                <path d="M85.4735067,102.618518 L87.5432225,102.618518 C88.2790212,102.618518 88.8872964,102.600461 89.3657912,102.565477 C89.8465431,102.531621 90.2257277,102.441339 90.5067305,102.294631 C90.7877334,102.147932 90.9919965,101.908675 91.1206484,101.574632 C91.2481718,101.241717 91.3339397,100.776764 91.3745666,100.180903 C91.4163221,99.5850412 91.435507,98.8187723 91.435507,97.8843532 C91.435507,96.9488056 91.4163221,96.1859223 91.3745666,95.594575 C91.3339397,95.0043561 91.2459147,94.5405321 91.1116202,94.2008459 C90.9773257,93.8611598 90.769677,93.6185268 90.4886741,93.4718185 C90.2076713,93.3273672 89.8307437,93.2359566 89.356763,93.2009723 C88.8839108,93.165988 88.2790212,93.1479316 87.5432225,93.1479316 L85.4735067,93.1479316 L85.4735067,102.618518 Z M83.9657966,103.916322 L83.9657966,91.8501273 L87.7881126,91.8501273 C88.7823435,91.8501273 89.5948819,91.8975254 90.2257277,91.991193 C90.857702,92.0848606 91.3576388,92.2530109 91.7255381,92.4990295 C92.0934374,92.745048 92.365412,93.0960195 92.541462,93.5519438 C92.7163835,94.0078681 92.8281075,94.5868017 92.8755056,95.287616 C92.9217751,95.9895589 92.9443456,96.855138 92.9443456,97.8843532 C92.9443456,98.91244 92.9217751,99.7768905 92.8755056,100.478833 C92.8281075,101.180776 92.7163835,101.758581 92.541462,102.215634 C92.365412,102.671558 92.0934374,103.021401 91.7255381,103.26742 C91.3576388,103.513438 90.857702,103.682717 90.2257277,103.775256 C89.5948819,103.868924 88.7823435,103.916322 87.7881126,103.916322 L83.9657966,103.916322 Z" id="Fill-30" fill="#FFFFFF" mask="url(#mask-2)"></path>
                <polygon id="Fill-31" fill="#FFFFFF" mask="url(#mask-2)" points="95.8770449 103.916774 95.8770449 91.8505787 103.715783 91.8505787 103.715783 93.148383 97.384755 93.148383 97.384755 97.1648054 102.891959 97.1648054 102.891959 98.4806661 97.384755 98.4806661 97.384755 102.618969 103.715783 102.618969 103.715783 103.916774"></polygon>
                <path d="M110.951324,104.056711 C110.12073,104.056711 109.427815,104.007056 108.87258,103.907745 C108.317346,103.808435 107.87045,103.642542 107.530764,103.407808 C107.191077,103.174204 106.933774,102.850317 106.758852,102.43502 C106.583931,102.019722 106.465436,101.501729 106.409009,100.882168 C106.349197,100.263736 106.319856,99.5143955 106.319856,98.6375311 L106.319856,91.8505787 L107.827566,91.8505787 L107.827566,99.2345211 C107.827566,99.9703198 107.858036,100.566181 107.916719,101.023234 C107.974274,101.479158 108.101798,101.835772 108.293647,102.093076 C108.486625,102.349252 108.793584,102.525302 109.214524,102.618969 C109.635464,102.712637 110.214397,102.758906 110.951324,102.758906 C111.687123,102.758906 112.262671,102.712637 112.67684,102.618969 C113.092137,102.525302 113.396839,102.349252 113.589817,102.093076 C113.783923,101.835772 113.902419,101.479158 113.948688,101.023234 C113.994958,100.566181 114.019785,99.9703198 114.019785,99.2345211 L114.019785,91.8505787 L115.527495,91.8505787 L115.527495,98.6375311 C115.527495,99.5143955 115.501539,100.263736 115.448499,100.882168 C115.396586,101.501729 115.284862,102.019722 115.114455,102.43502 C114.946305,102.850317 114.691258,103.174204 114.3527,103.407808 C114.013014,103.642542 113.566118,103.808435 113.010884,103.907745 C112.455649,104.007056 111.769505,104.056711 110.951324,104.056711" id="Fill-32" fill="#FFFFFF" mask="url(#mask-2)"></path>
                <polygon id="Fill-33" fill="#FFFFFF" mask="url(#mask-2)" points="121.720731 103.916774 121.720731 93.1833673 117.914214 93.1833673 117.914214 91.8505787 127.053014 91.8505787 127.053014 93.1833673 123.228441 93.1833673 123.228441 103.916774"></polygon>
                <path d="M133.684907,104.056711 C133.252681,104.056711 132.778701,104.044297 132.262965,104.021726 C131.749485,103.998027 131.249549,103.968686 130.764283,103.93483 C130.279017,103.898717 129.837763,103.85809 129.439394,103.810692 L129.439394,102.530944 C129.860334,102.565928 130.301587,102.600913 130.764283,102.635897 C131.22585,102.670881 131.67726,102.701352 132.115128,102.723922 C132.554124,102.747621 132.92428,102.758906 133.228982,102.758906 C133.848543,102.758906 134.346223,102.73295 134.718636,102.67991 C135.093306,102.626869 135.408165,102.525302 135.666597,102.372951 C135.842647,102.267998 135.970171,102.128061 136.052553,101.952011 C136.133807,101.775961 136.184591,101.572826 136.201519,101.338093 C136.219575,101.104488 136.228603,100.852827 136.228603,100.584238 C136.228603,100.186997 136.215061,99.8653669 136.193619,99.6193483 C136.168791,99.3744583 136.106722,99.184866 136.008541,99.049443 C135.90923,98.9151484 135.747851,98.8158382 135.525532,98.7515122 C135.305469,98.6871863 135.005281,98.6375311 134.632868,98.6025469 L131.633247,98.2696318 C131.071242,98.1996632 130.62096,98.078911 130.281274,97.9096322 C129.942716,97.7403534 129.688798,97.5236765 129.519519,97.2618585 C129.349112,96.9977836 129.235131,96.6817964 129.177576,96.3138971 C129.117764,95.9448693 129.089551,95.5329575 129.089551,95.0770332 C129.089551,94.3412345 129.186604,93.7498871 129.379582,93.3063766 C129.571431,92.8617376 129.854691,92.5220514 130.228233,92.2884466 C130.604032,92.0548418 131.056571,91.9013624 131.589235,91.8234941 C132.119642,91.7490114 132.732431,91.7106415 133.423089,91.7106415 C133.865471,91.7106415 134.321395,91.7219268 134.789733,91.7456258 C135.256943,91.7681963 135.699325,91.8009236 136.113494,91.8415505 C136.528791,91.8833059 136.869606,91.9329611 137.139323,91.9916444 L137.139323,93.2352795 C136.834621,93.18901 136.48365,93.148383 136.087537,93.1133988 C135.690296,93.0772859 135.282899,93.0513299 134.86873,93.0332734 C134.454561,93.0174741 134.059577,93.0084459 133.684907,93.0084459 C133.041647,93.0084459 132.521397,93.036659 132.124156,93.0953423 C131.725786,93.1540257 131.409799,93.2601071 131.176194,93.4113295 C130.918891,93.5636804 130.757511,93.7769718 130.694314,94.0512035 C130.629988,94.3265637 130.598389,94.6560931 130.598389,95.0431774 C130.598389,95.4979732 130.629988,95.8512017 130.694314,96.1028628 C130.757511,96.3556526 130.898577,96.530574 131.115254,96.6298843 C131.330802,96.7291945 131.656946,96.8014201 132.089172,96.8488182 L135.018824,97.1817332 C135.439764,97.2167175 135.80992,97.2720153 136.13155,97.348755 C136.45318,97.4243662 136.730797,97.5496326 136.964402,97.7256825 C137.198007,97.900604 137.375185,98.1533937 137.491423,98.4806661 C137.560263,98.6431738 137.612175,98.8248664 137.648288,99.0234869 C137.683273,99.2221074 137.709229,99.4410413 137.727285,99.6814172 C137.745341,99.9206647 137.753241,100.186997 137.753241,100.479285 C137.753241,101.145115 137.690044,101.698092 137.560263,102.137089 C137.431611,102.574957 137.251047,102.922543 137.017442,103.179846 C136.783838,103.43715 136.497192,103.630128 136.157506,103.75878 C135.818948,103.887432 135.442021,103.968686 135.026723,104.00367 C134.610298,104.038654 134.163401,104.056711 133.684907,104.056711" id="Fill-34" fill="#FFFFFF" mask="url(#mask-2)"></path>
                <path d="M145.153096,104.056711 C144.313473,104.056711 143.605887,104.007056 143.032596,103.907745 C142.459305,103.808435 141.992096,103.633514 141.628711,103.380724 C141.267582,103.130191 140.989965,102.773577 140.795859,102.31201 C140.604009,101.850443 140.471972,101.256839 140.400875,100.531197 C140.330906,99.8066836 140.294793,98.9241766 140.294793,97.8836761 C140.294793,96.8420471 140.330906,95.9629257 140.400875,95.2440549 C140.471972,94.5251842 140.604009,93.9349653 140.795859,93.4722699 C140.989965,93.0107029 141.267582,92.6518318 141.628711,92.394528 C141.992096,92.1360957 142.459305,91.9589172 143.032596,91.8584784 C143.605887,91.7602967 144.313473,91.7106415 145.153096,91.7106415 C145.481497,91.7106415 145.816669,91.7219268 146.163126,91.7456258 C146.506198,91.7681963 146.836856,91.7986665 147.153972,91.8325223 C147.469959,91.8675066 147.743062,91.9149047 147.978924,91.973588 L147.978924,93.1833673 C147.708078,93.148383 147.43046,93.1167843 147.146072,93.0863141 C146.859426,93.058101 146.575038,93.036659 146.295164,93.0265023 C146.013032,93.0140885 145.761371,93.0084459 145.541309,93.0084459 C144.861936,93.0084459 144.295416,93.036659 143.839492,93.0953423 C143.383568,93.1540257 143.019054,93.2680068 142.750465,93.4372856 C142.481876,93.6065644 142.280998,93.8706394 142.146704,94.2272534 C142.012409,94.582739 141.922127,95.0567197 141.875858,95.6480671 C141.827331,96.2371574 141.804761,96.9831127 141.804761,97.8836761 C141.804761,98.7842395 141.827331,99.5290663 141.875858,100.119285 C141.922127,100.709504 142.012409,101.183485 142.146704,101.540099 C142.280998,101.896713 142.481876,102.159659 142.750465,102.330067 C143.019054,102.498217 143.383568,102.613327 143.839492,102.670881 C144.295416,102.729565 144.861936,102.758906 145.541309,102.758906 C145.937421,102.758906 146.369646,102.741978 146.836856,102.706994 C147.304065,102.670881 147.708078,102.630254 148.046635,102.582856 L148.046635,103.828749 C147.802874,103.876147 147.513971,103.913388 147.178799,103.94273 C146.845884,103.972071 146.503941,103.998027 146.154098,104.021726 C145.803126,104.044297 145.470211,104.056711 145.153096,104.056711" id="Fill-35" fill="#FFFFFF" mask="url(#mask-2)"></path>
                <polygon id="Fill-36" fill="#FFFFFF" mask="url(#mask-2)" points="150.729592 103.916774 150.729592 91.8505787 152.239559 91.8505787 152.239559 97.1648054 158.552531 97.1648054 158.552531 91.8505787 160.060241 91.8505787 160.060241 103.916774 158.552531 103.916774 158.552531 98.497594 152.239559 98.497594 152.239559 103.916774"></polygon>
                <polygon id="Fill-37" fill="#FFFFFF" mask="url(#mask-2)" points="163.284438 103.916774 163.284438 91.8505787 164.792148 91.8505787 164.792148 102.582856 170.421233 102.582856 170.421233 103.916774"></polygon>
                <path d="M175.48662,99.3044897 L179.993951,99.3044897 L177.78317,93.3944016 L177.697402,93.3944016 L175.48662,99.3044897 Z M172.260166,103.916774 L176.820537,91.8505787 L178.713075,91.8505787 L183.256518,103.916774 L181.695768,103.916774 L180.449875,100.619222 L175.030696,100.619222 L173.784804,103.916774 L172.260166,103.916774 Z" id="Fill-38" fill="#FFFFFF" mask="url(#mask-2)"></path>
                <polygon id="Fill-39" fill="#FFFFFF" mask="url(#mask-2)" points="185.702823 103.916774 185.702823 91.8505787 187.247775 91.8505787 193.507706 101.093203 193.578803 101.093203 193.578803 91.8505787 195.033472 91.8505787 195.033472 103.916774 193.578803 103.916774 187.230847 94.4980996 187.15975 94.4980996 187.15975 103.916774"></polygon>
                <path d="M199.76538,102.618518 L201.835095,102.618518 C202.570894,102.618518 203.179169,102.600461 203.659921,102.565477 C204.138416,102.531621 204.5176,102.441339 204.799732,102.294631 C205.079606,102.147932 205.284998,101.908675 205.412521,101.574632 C205.542302,101.241717 205.625813,100.776764 205.667568,100.180903 C205.708195,99.5850412 205.72738,98.8187723 205.72738,97.8843532 C205.72738,96.9488056 205.708195,96.1859223 205.667568,95.594575 C205.625813,95.0043561 205.537788,94.5405321 205.403493,94.2008459 C205.269198,93.8611598 205.06155,93.6185268 204.781675,93.4718185 C204.501801,93.3273672 204.122617,93.2359566 203.650893,93.2009723 C203.176912,93.165988 202.570894,93.1479316 201.835095,93.1479316 L199.76538,93.1479316 L199.76538,102.618518 Z M198.257669,103.916322 L198.257669,91.8501273 L202.079985,91.8501273 C203.074216,91.8501273 203.886755,91.8975254 204.5176,91.991193 C205.149575,92.0848606 205.65064,92.2530109 206.018539,92.4990295 C206.386439,92.745048 206.657285,93.0960195 206.834463,93.5519438 C207.008256,94.0078681 207.121109,94.5868017 207.167378,95.287616 C207.213648,95.9895589 207.237347,96.855138 207.237347,97.8843532 C207.237347,98.91244 207.213648,99.7768905 207.167378,100.478833 C207.121109,101.180776 207.008256,101.758581 206.834463,102.215634 C206.657285,102.671558 206.386439,103.021401 206.018539,103.26742 C205.65064,103.513438 205.149575,103.682717 204.5176,103.775256 C203.886755,103.868924 203.074216,103.916322 202.079985,103.916322 L198.257669,103.916322 Z" id="Fill-40" fill="#FFFFFF" mask="url(#mask-2)"></path>
                <path d="M43.9825891,49.3022327 L43.9825891,61.9721886 L33.0099355,55.6366464 L22.0700092,61.9530037 L22.0700092,49.2977186 L11.1503963,42.9926465 L22.0700092,36.6875745 L22.0700092,24.0063333 L33.0099355,30.3226906 L43.9825891,23.9871484 L43.9825891,36.6503331 L54.9383148,42.9768472 L43.9825891,49.3022327 Z M66.0531626,23.9081516 L55.0173116,17.537625 L44.0457865,23.8731673 L44.0457865,11.208854 L33.0099355,4.83832743 L21.9752131,11.208854 L21.9752131,23.8900952 L11.0352867,17.5748664 L-0.000564262757,23.9453929 L-0.000564262757,36.6875745 L10.9201771,42.9926465 L-0.000564262757,49.2977186 L-0.000564262757,62.0399001 L11.0352867,68.4115552 L21.9752131,62.0951979 L21.9752131,74.750483 L33.0099355,81.1210095 L44.0457865,74.750483 L44.0457865,62.0805271 L55.0173116,68.4160693 L66.0531626,62.0444143 L66.0531626,49.3022327 L55.0974369,42.9768472 L66.0531626,36.6503331 L66.0531626,23.9081516 Z" id="Fill-41" fill="#FFFFFF" mask="url(#mask-2)"></path>
            </g>
        </g>
    </g>
</svg>